<?xml version="1.0" encoding="UTF-8"?>
<!DOCTYPE svg PUBLIC "-//W3C//DTD SVG 1.1//EN" "http://www.w3.org/Graphics/SVG/1.1/DTD/svg11.dtd">
<!-- Creator: CorelDRAW 2019 (64-Bit) -->
<svg xmlns="http://www.w3.org/2000/svg" xml:space="preserve" width="6.4in" height="6.4in" version="1.1" style="shape-rendering:geometricPrecision; text-rendering:geometricPrecision; image-rendering:optimizeQuality; fill-rule:evenodd; clip-rule:evenodd"
viewBox="0 0 6400 6400"
 xmlns:xlink="http://www.w3.org/1999/xlink">
 <defs>
  <style type="text/css">
   <![CDATA[
    .fil0 {fill:#1B4B93}
    .fil1 {fill:#1C4484}
    .fil2 {fill:#1F4B92}
    .fil4 {fill:#474747}
    .fil3 {fill:#4C4C4C}
    .fil6 {fill:#4D4D4D}
    .fil7 {fill:#514E4E}
    .fil9 {fill:#515151}
    .fil8 {fill:#525252}
    .fil5 {fill:#545252}
   ]]>
  </style>
 </defs>
 <g id="Layer_x0020_1">
  <metadata id="CorelCorpID_0Corel-Layer"/>
  <g id="_2384079320560">
   <path class="fil0" d="M2100.28 2364.93l1.63 53.76c-40.09,2.29 -3.98,-6.25 -45.94,-6.06l0.8 36.15 -24.03 0 0 -20.24 -8.86 0c0,41.79 -11.98,4.59 -13.66,35.85l-22.87 0.09 -2.16 27.81c-18.33,0 -35.49,3.33 -53.91,2.04 -16,-1.11 -9.68,-2.94 -23.17,-3.7l-77.89 0.8c-26.48,4.12 -21.17,-1.06 -47.52,-1.06l0 10.62c27.27,0 78.84,-3.07 102.31,0 0,20.83 -2.74,18.74 -16.74,17.24 -25.18,-2.7 -80.46,-0.3 -107.96,-0.3 -5.5,7.6 -1.66,9.97 -6.57,18.47l-177.57 0c-4.93,-8.52 -0.99,-10.75 -6.58,-18.45l-42.24 -0.15 0.01 23.02 -47.06 0 -0.04 -23.02 -22.98 0 -0.01 -23.02 -46.03 0 0 -22.96 -94.39 -0.35 2.56 -36.38c-2.09,-10.4 -11.75,-1.8 -19.35,-15.36l-24.1 2.19c-3.6,16.13 5.64,-4.19 5.64,24.43l-22.41 5.18c-5.34,37.35 4.89,14.33 11.69,23.21 -0.62,3.41 2.69,50.95 3.86,59.67l26.33 4.77 4.02 22.53c0.2,-0.48 0.83,1.85 1.4,3.12l13.18 0.23c3.65,-5.02 2.08,-0.96 4,-8.67 1.79,-7.17 0.6,1.44 0.88,-6.07 0.03,-0.94 -2.06,-11.38 -2.2,-11.71 -6.99,-17.22 2.87,-4.67 -13.69,-11.43 -0.26,-39.18 -1.54,-26.58 -7.35,-34.79l7.11 -9.87c2.5,4.37 4.09,7.72 6.84,12.22l7.64 11.48 40.53 0 0.2 36.86c29.34,0 16.88,-1.52 26.94,6.18l4.72 3.69c12.14,0 24.28,0.12 36.42,-0.09 16.47,-0.28 22.47,-4.98 23.65,8l-46.3 0.17c-0.39,26.77 -3.09,71.43 1.74,87.68l44.12 9.56 0 36.62c-7.56,5.87 -6.13,3.15 -23.45,6.59 0.33,27.62 10.2,39.04 40.15,49.31 0,54.5 0.54,33.8 8.21,48.15 0.44,0.83 0.87,1.62 1.27,2.44 5.87,12.08 -1.78,5.3 8.77,15.56 11.77,11.43 16.67,13.45 15.05,34.94 8.23,4.37 9.79,2.95 16.44,10.29 9.44,10.42 4.27,10.58 7.52,20.96 12.09,1.79 29.73,8.11 40.96,2.5 7.42,-6.34 9.6,-6.56 22.75,-6.56l0.85 -23.41c0.63,-6.21 0.79,-9.74 0.79,-16.07l44.04 -0.83 1.99 -43.55 -44.9 0.02 0.5 -49.34c-18.78,0 -27.44,3.29 -45.83,3.28l-1.85 -46.13 -44.4 0.9c0,-17.23 -2.67,-83.47 3.29,-97.8 24.86,0 22.86,-6.91 23.02,16.44l210.44 -0.02c39.36,-0.36 42.74,-8.33 42.7,31.25l44.43 0 -4.92 21.37 4.92 9.87 249.93 0 0.04 27.94 49.26 0 0 -27.94 19.74 0 0.01 14.81 -16.45 0 0 21.36c-15.4,4.87 -262.15,0 -302.54,0l0.01 24.67 46.02 0 0 18.07c32.34,0 64.68,0 97.02,0 53.71,0 80.31,-8.33 83.03,13.15l-180.05 0 0 12.98 46.04 1.83 0 44.22 42.76 1.81 1.87 -44.4 91.84 -0 0.07 -46.04 46.78 1.63 2.68 -11.48 88.56 -3.33 -1.98 -29.55c16.65,-11.7 18.26,11.25 18.44,-16.48l29.58 0c-0.15,-1.42 -0.72,-4.67 -1,-4.17 -0.26,0.47 -0.68,-2.76 -1.03,-3.93 -0.32,-1.04 -0.67,-2.31 -1.05,-3.51l-3.36 -15.3c0.78,-5.81 4.85,-12.77 4.66,-28.87 -0.25,-22.34 2.89,-48.49 -1.77,-69.15 -5.01,-22.42 6.84,-20 -7.26,-24.45 -7.36,-2.33 -29.07,2.71 -33.63,-2.28 -0.4,-0.44 -1.19,-1.5 -1.7,-2.02 -0.49,-0.5 -1.16,-1.39 -1.74,-1.9 -7.91,-7.09 -8.41,-5.52 -24.46,-5.52l0 -9.86c21.81,-2.39 1.73,0.93 12.94,-13.38 3.87,-4.93 6.58,-3.56 13.36,-10.73l9.61 4.26c10.25,3.48 15.21,2.09 29.86,0.68 -3.87,-16.13 -23.92,-3.63 -42.76,-9.88l0 -16.99 -23.02 0 0 -15.89 23.56 0c1.86,-11.85 0.79,-14.41 0.56,-29.05l41.66 0.22 -88.67 0.65 -0.15 -68.24 -22.99 -3.44c-7.63,-3.84 -5.13,-2.62 -16.46,-2.62 -6.07,6.93 -7.61,-10.5 -5.3,11.99zm-93.36 -11.85c-19.49,12.07 -22.52,27.78 -36.64,38.87 -18.53,14.55 -187.08,4.1 -216.54,3.74 -49.43,-0.61 -101.35,0.2 -150.49,-2.24 -42.94,-2.13 -103.07,-0.99 -145.79,-6.57 -25.34,-3.26 -12.14,0.93 -20.13,4.44 -4.87,2.13 -3.51,2.4 -8.98,3.72 -14.13,3.4 -123.28,-0.45 -133.48,-1.83 -27.94,-3.8 -135.64,-3.55 -150.98,5.77 5.76,5.89 5.13,2.97 10.2,11.56l6.27 14.11c2.07,3.71 1.63,2.86 5.27,6.76 24.1,25.87 23.67,27.98 42.39,53.19 0.41,0.54 0.98,1.33 1.39,1.86 0.41,0.53 1.04,1.26 1.47,1.77 7.9,9.39 10.7,8.95 17.45,23.31l41.45 48.42c0.52,0.36 1.29,1.01 1.85,1.38 13.39,8.82 14.22,8.9 23.1,9.89 0.24,22.37 -11.16,10.14 8.79,22.11 20.63,12.38 10.87,11.48 23.79,27.64l35.96 13.83c0.3,37.98 14.42,23.18 25.48,23.92 0.83,26.88 -4.31,-1.29 -1.86,45.24l22.06 0.17c0.5,7.59 -0.24,9.18 -0.56,15.69 -1.09,21.96 3.64,7.31 9.3,48.48 10.32,0.98 12.06,3.42 19.48,8.2l0.89 -24.51c19.98,3.65 5.14,27.29 4.26,38.28 9,7.19 15.68,6.26 26.85,8.57 0.16,20.92 1.96,29.63 11.94,44.27l2.75 3.95c0.37,0.61 0.85,1.44 1.2,2.06l63 87.52c4.11,5.96 2.16,3.36 7.81,9.31 20.02,21.08 16.27,19.02 24.61,42.35l45.21 62.43c13.83,19.58 -1.59,21.2 -1.65,21.23 4.61,7.5 9.23,13.33 15.95,22.65 3.3,4.58 5.39,7.87 8.21,11.72 6.3,8.6 4.7,7.04 11.95,12.16 6.81,-10.3 6.83,-5.96 24.52,-5.96 6.5,8.73 58.21,-0.1 82.23,-0.01 61.84,0.23 165.39,-8.91 223.8,-5.61 17.02,0.96 21.94,5.77 39,5.79 32.69,0.04 55.71,-4.32 85.74,-4.41 87.2,-0.26 187.18,3.58 269.66,-2.34l3.06 -8.67c-24.4,-2.93 -50.52,-0.98 -75.42,-0.75 -17.62,0.17 -58.99,1.85 -75.63,4.25l-263.06 -2.17c-23.31,-0.93 -42.1,-1.51 -65.92,-0.94 -6.27,0.15 -10,0.01 -16.23,1.2 -8.5,1.62 -4.75,2.53 -11.83,3.63 -13.47,2.09 -2.02,-3.5 -24.07,-5.01 -21.76,-1.48 -45.75,3.66 -63.02,3.64l-46 -2.67c-14.77,-2.51 -5.33,2.06 -12.95,-5.68 3.93,-22.22 -8.27,-11.05 42.75,-13.15l0.27 -6.59c9.5,8.74 -15.24,1.65 -16.93,1.63l-36.78 -1.48c-14.46,-3.06 -11.25,-4.22 -13.13,-5.37 -7.46,-4.59 14.58,-4.64 -25.51,-4.64 -0.08,-4.93 -1,-12.89 -1.03,-16.85l0.53 -49.04c0.08,-0.82 0.2,-2.12 0.5,-3.13 2.87,-1.19 2.02,-1.45 9.66,-2.63l33.09 -0.65 -0.01 -9.9 -42.81 0 1.7 -16.44 -34.87 0c0,26.97 -0,8.43 -6.24,16.04 -10.9,-14.22 -6.55,-38.5 -7.77,-69.4 -0.39,-9.88 1.46,-9.72 1.47,-22.54l-36.45 0c-1.49,11.05 -1.03,11.81 -8.9,18.46 -12.34,-7.6 -18.99,3.19 -23.7,-21.47 -11.24,5.62 -28.87,-0.71 -40.96,-2.5 -3.25,-10.38 1.92,-10.54 -7.52,-20.96 -6.65,-7.34 -8.22,-5.92 -16.44,-10.29 1.62,-21.48 -3.28,-23.5 -15.05,-34.94 -10.55,-10.26 -2.9,-3.48 -8.77,-15.56 -0.4,-0.82 -0.83,-1.61 -1.27,-2.44 -7.67,-14.35 -8.21,6.35 -8.21,-48.15 -29.94,-10.27 -39.81,-21.69 -40.15,-49.31 17.32,-3.44 15.89,-0.72 23.45,-6.59l0 -36.62 -44.12 -9.56c-4.83,-16.25 -2.13,-60.91 -1.74,-87.68l46.3 -0.17c-1.18,-12.98 -7.19,-8.28 -23.65,-8 -12.14,0.21 -24.28,0.09 -36.42,0.09l-4.72 -3.69c-10.06,-7.7 2.4,-6.18 -26.94,-6.18l-0.2 -36.86 -40.53 0 -7.64 -11.48c-2.74,-4.5 -4.34,-7.85 -6.84,-12.22l-7.11 9.87c5.81,8.21 7.09,-4.39 7.35,34.79 16.56,6.76 6.7,-5.78 13.69,11.43 0.14,0.33 2.23,10.78 2.2,11.71 -0.28,7.52 0.91,-1.1 -0.88,6.07 -1.93,7.71 -0.35,3.65 -4,8.67l-13.18 -0.23c-0.57,-1.28 -1.2,-3.61 -1.4,-3.12l-4.02 -22.53 -26.33 -4.77c-1.18,-8.72 -4.48,-56.26 -3.86,-59.67 -6.8,-8.87 -17.03,14.14 -11.69,-23.21l22.41 -5.18c0,-28.62 -9.24,-8.3 -5.64,-24.43l24.1 -2.19c35.51,-7.43 87.95,2.48 98.87,1.63 21.43,-1.67 1.97,-7.9 25.82,-10.71 23.91,-2.82 58.26,7.41 81.37,2.93 25.79,-5 1.8,4.43 39.02,0.77l-17.66 -3.72c41.63,-3.92 68.28,0.39 107.86,1.47 38.58,1.06 72.49,-4.62 111.8,-1.88 35.57,2.48 193.15,3.8 222.96,-0.27l5.72 17.63 18.92 -1.35c0.02,-20.16 -6.31,-7.74 15.65,-20.83 17.84,-10.63 15.5,-9.02 39.26,-8.96 0.81,-3.08 0.96,-12.18 6.58,-18.65l41.55 -0.07 2.47 -12.84c-2.31,-22.48 -0.78,-5.06 5.3,-11.99 11.32,0 8.83,-1.22 16.46,2.62l0 -15.79c1,-0.75 2.32,-1.23 3.36,-1.67l9.49 -3.72c6.16,-2.19 1.11,1.56 7.05,-2.09 8.02,-4.93 2.45,-35.71 1.54,-37.46 -0.29,-0.56 -0.92,-1.29 -1.25,-1.82 -0.37,-0.59 -1.13,-1.41 -1.52,-1.96l-3.57 -4.59c-0.34,-1.52 -1.51,-1.59 -1.94,-2.57l10.26 -13.63c9.11,-10.8 -7.14,-8.76 10.06,-7.11 14.09,1.35 9.24,9 9.24,24.11l115.11 -0.06 0.09 -45.93 46.13 -0.1 -0.2 -46.04 46.06 0c0,-23.53 3.39,-20.05 9.86,-23.02l0 -19.75c-0.13,19.08 1.93,3.17 -9.02,9.85l0.82 -42.75c8.22,-2.25 9.31,-6.86 24.05,-6.22 28.39,1.23 9.62,2.04 29.89,-11.23 23.41,-15.33 33.33,2.04 36.95,-21.91 22.41,2.73 24.44,-0.45 45.54,-2.5 14.03,-30.8 33.91,-18.63 33.92,-18.63 15.3,-0.09 7.1,2.59 12.42,-6.77 -6.69,7.48 -10.65,-4.46 -10.71,-4.52l56.45 0.2 3.74 -13.67c18.59,0.33 12.87,4.61 22.44,-1.18l19.55 -7.1c0.93,-0.13 3.26,-0.41 4.12,-0.4l42.22 2.19c1.83,-20.69 1.49,-7.08 6.58,-13.46l48.24 2.4c0.73,0.18 1.89,0.44 2.76,0.87 -1.25,29.22 -5.24,4.86 -30.81,33.56 -11.98,13.45 -13.28,5.52 -22.01,10.46l-2.06 38.18c0.84,0.57 1.99,0.39 2.31,1.49 1.63,5.72 2.41,-1.38 10.33,8.38 -16.43,12.78 -9.06,-5.09 -15.28,18.89 -6.52,25.13 -6.12,19.1 -21.99,41.5 -6.19,8.74 -7.65,15.17 -20.2,9.81 -1.26,14.51 1.68,10.6 -10.52,22.06l-3.41 3.15c-5.92,4.54 -2.87,3.19 -10.54,5.19l-0.9 35.04c-29.37,-2.58 -10.41,-3.6 -21.88,15.37l-41.05 1.61c-2.36,14.88 -2.02,27.97 -11.42,37.64l-23.45 22.38c-26.07,23.37 -5.84,15.67 -18,31.77l-5.08 4.59c-19.15,15.93 -16.29,-1.54 -26.44,19.19 -4.75,9.69 -3.55,2.91 -4.39,15.68 -12.37,-9.51 -6.39,-12.63 -23.38,-9.8 -0.81,44.27 2.66,32.21 -11.5,50.46 -9.62,12.4 -0.15,10.25 -16.43,11.16l11.19 6.28 -43.02 52.57c-3.37,6.46 -4.69,14.65 -3.34,26.46 -22.49,-0.85 -10.07,1.94 -18.7,7.81 -12.94,8.8 -8.57,-0.05 -17.46,6.51 -17.53,12.93 0.56,21.21 -9.98,40.93 -26.06,5.17 -4.85,-1.27 -19.73,-7.79 -16.65,13.05 -25.93,21.52 -26.48,41.09 -1.55,54.65 -16.26,7.26 -16.26,62.59 13.5,1.06 -8.43,0.63 -16.72,12.94 -0.42,0.63 -27.24,72.55 6.98,90.03 5.39,2.75 9.33,3.04 13.43,8.83 -0.76,-20.16 -2.35,-9.72 5.22,-14.28l-19.02 -23.39c1.3,-26.04 -11.96,4.96 -7.53,-24.48 1.56,-10.38 4.59,-7.12 5.13,-7.54l7.38 -4.62c6.32,-5.78 8.38,-12.57 12.76,-19.79 6,-9.89 -0.41,-2.81 7.75,-9.55 20.76,-17.12 9.92,-12.45 22.92,-28.89l36.48 -45.87c0.42,-0.47 1.08,-1.19 1.48,-1.66 9.4,-11.3 10.15,-18.82 22.55,-27.75 11.04,-7.94 10.67,-14.24 16.95,-24.59 4.33,-7.13 1.85,0 6.71,-10.17l8.16 -21.82c5.45,-11.04 11.6,-14.68 16.54,-22.97 7.08,-11.89 1.11,-11.27 12.36,-19.54l17.35 -16.21c8.51,-9.68 10.23,-5.48 11.81,-21.24 2,9.28 -1.51,3.64 3.71,6.26l5.04 -1.42c6.26,-2.48 -1.35,0.52 12.02,-0.24l31.84 -67.09c7.11,-11.2 14.28,-6.33 23.11,-19.01l28.37 -31.35c14.13,-12.61 7.19,-7.29 17.92,-20.96l36.66 -45.39c13.58,-19.51 32,-40.81 43.85,-61.98l3.71 -11.23c5.19,-10.57 8.2,-7.02 15.13,-12.59 0.52,-0.42 1.22,-1.15 1.72,-1.56 0.48,-0.38 1.18,-1.11 1.63,-1.46 0.43,-0.33 1.19,-0.98 1.61,-1.28 11.79,-8.28 0.95,7.87 16.18,-19.82 8.86,-16.12 26.23,-29.54 33.69,-45.66 3.39,-7.33 2.54,-5.45 4.12,-11.41l1.24 -11.59c-7.98,3.93 -8.3,11.01 -17.27,12.92 5.85,-5.43 12.98,-16.46 13.37,-30.91l11.46 -5.1c6.22,-7.67 3.98,-6.25 5.2,-17.92l4.63 -0.14c0.32,-0.14 1.24,-0.6 1.59,-0.81 0.4,-0.24 1.28,-0.85 1.7,-1.16l25.38 -24.68c5.01,-7.69 3.26,-6.94 6.04,-14.58 6.04,-16.61 14.74,-11.31 22.53,-27.69l-50.18 4.19c-6.07,2.78 -3.88,2.66 -11.27,0.92 -41.64,-9.8 -32.61,3.22 -65.96,7.87l-46.08 13.31c-32.07,13.23 -67.73,28.42 -103.68,36.39 -11.03,2.44 -14.69,6.44 -27.74,9.83l-94.48 24.83c-9.19,2.85 -17.13,7.23 -28.52,10.71l-146.03 47.43c-11.35,4.57 -13.13,8.79 -25.46,14.19 -27.9,12.22 -37.82,16.63 -53.99,41.46 -0.34,0.54 -0.85,1.37 -1.21,1.87 -7.04,9.74 -27.8,22.8 -36.73,31.8l-13.92 15.32c-10,15.76 -26.84,24.28 -39.64,39.44 -8.65,10.25 -6.58,14.15 -15.11,24.61 -9.76,11.98 -21.39,15.46 -29.59,27.97l-25.92 31.39c-0.8,0.54 -3.43,2.1 -4.2,2.52 -6.4,3.51 -4.89,6.8 -7.94,1.96 9.89,-5.24 7.52,-4.09 9.87,-16.29zm229.92 210.3c4.66,20.67 1.52,46.81 1.77,69.15 0.19,16.1 -3.89,23.06 -4.66,28.87l3.36 15.3c0.38,1.2 0.73,2.47 1.05,3.51 0.35,1.16 0.77,4.4 1.03,3.93 0.28,-0.5 0.85,2.75 1,4.17l-29.58 0c-0.19,27.73 -1.8,4.78 -18.44,16.48l1.98 29.55 -88.56 3.33 -2.68 11.48 -2.81 13.13 -22.65 0.04 -0 32.87 23.02 0 0 65.78 -46.02 0 -0.02 23.02 -23.02 0 0 23.02 -23.02 0 -0 23.02 -23.02 0 0 16.44 -23.02 0 0.01 77.27 40.91 -1.67c12.78,-1.45 12.63,-3.82 33.33,-3.72 19,0.09 15.22,-3.01 17.83,7.02l46.04 0 0 9.87 26.29 0 0 -16.44 19.75 0c2.68,4.78 -0.78,6.58 19.72,6.58l0 23.02 42.72 0.79 19.76 -46.83 29.59 0 0 23.02 26.32 0 -0.03 -46.04 42.76 1.81 -0.08 44.22c56.72,8.41 44.94,-16.96 44.46,54.28 -9.65,-2.6 -12.33,-0.62 -26.34,-0.07l-87.1 1.7c-0.27,26.7 -2.58,-1.53 -21.38,19.5 16.64,-2.39 58.01,-4.08 75.63,-4.25 24.9,-0.23 51.02,-2.18 75.42,0.75l25 -18.91c12.96,-9.82 2.3,-9.26 23.44,-22.13 11.02,-6.71 10.48,-2.24 10.14,-21.54 -31.57,-10.4 -34.02,-12.53 -68.76,-13.49 -0.94,-34.2 -2.08,0.56 10.15,-35.33 0.29,-0.84 0.44,-1.72 0.77,-2.53l4.13 -6.84c0.38,-0.55 1.26,-1.42 1.9,-2.11l-8.5 -5.05c-2.56,-1.69 -8.62,2.98 -8.77,-21.26 9.88,-4.35 11.59,-2.42 14.94,-13.15 -0.8,-0.57 -2.19,-2 -2.7,-1.19 -0.06,0.1 -18.06,-2.43 -30.85,-18.48 -7.22,-9.07 -16.35,-19 -26.77,-23.07 -3.7,-58.94 -2.55,-35.31 -16.95,-49.04 -12.56,-11.97 -1.44,-7.54 -5.14,-18.89 -0.81,-2.5 -16.93,-27.05 -26.63,-30.75 -4.1,-5.79 -8.05,-6.07 -13.43,-8.83 -34.22,-17.48 -7.4,-89.41 -6.98,-90.03 8.28,-12.31 30.22,-11.89 16.72,-12.94 0,-55.34 14.71,-7.95 16.26,-62.59 0.55,-19.57 9.83,-28.04 26.48,-41.09 14.88,6.52 -6.33,12.96 19.73,7.79 10.54,-19.72 -7.55,-28 9.98,-40.93 8.89,-6.56 4.52,2.29 17.46,-6.51 8.63,-5.86 -3.79,-8.65 18.7,-7.81 -1.35,-11.81 -0.03,-20 3.34,-26.46l43.02 -52.57 -11.19 -6.28 -0.76 -21.67c-19.96,0 -26.44,-2.77 -46.65,3.2l-4.26 48.15 29.54 -2.86c3.44,17.21 1.57,2.57 -9.72,12.57 -0.31,0.28 -5.29,5.51 -5.96,6.28l-7.71 10.89c-18,33.33 2.47,5.9 -20.63,16.93 -6.65,3.18 -0.43,-0.98 -6,4.5 -6.76,6.65 -1.28,7.3 -14.3,14.43l-6.38 2.63c-0.92,-37.54 -10.04,-21.37 -46.02,-21.37l0.15 31.2 -23.19 1.66 0 11.52 -24.93 0zm-666.97 322.25c4.71,24.66 11.36,13.87 23.7,21.47 7.87,-6.65 7.41,-7.41 8.9,-18.46l36.45 0c-0.01,12.81 -1.86,12.66 -1.47,22.54 1.22,30.91 -3.13,55.18 7.77,69.4 6.24,-7.61 6.24,10.93 6.24,-16.04l34.87 -0 1.77 -78.9 44.25 0c0,39 -6.99,32.54 44.42,32.88l0 32.87 47.4 0 0.34 -22.98c19.54,0 60.71,-2.42 77.74,-0.14 27.76,3.71 2.17,8.87 25.83,10.37 8.9,0.57 23.31,-0.32 32.83,-0.39l-0 -32.9 -16.47 0c-0.96,23.28 3.26,16.44 -23,16.44 -6.53,-7.88 -6.56,11.6 -6.56,-39.43l23.03 0 -0.01 -23.02 23.02 0 1.64 -21.38 -42.76 -1.81 0 -44.22 -46.04 -1.83 -0 -12.98 180.05 0c-2.72,-21.48 -29.32,-13.15 -83.03,-13.15 -32.34,0 -64.68,0 -97.02,0l0 -18.07 -46.02 0 -0.01 -24.67c40.39,0 287.14,4.87 302.54,0l0 -21.36 16.45 0 -0.01 -14.81 -19.74 0 0 27.94 -49.26 0 -0.04 -27.94 -249.93 0 -4.92 -9.87 4.92 -21.37 -44.43 0c0.04,-39.57 -3.35,-31.61 -42.7,-31.25l-210.44 0.02c-0.16,-23.35 1.84,-16.44 -23.02,-16.44 -5.95,14.33 -3.29,80.57 -3.29,97.8l44.4 -0.9 1.85 46.13c18.39,0 27.04,-3.28 45.83,-3.28l-0.5 49.34 44.9 -0.02 -1.99 43.55 -44.04 0.83c0,6.33 -0.15,9.86 -0.79,16.07l-0.85 23.41c-13.15,0 -15.33,0.22 -22.75,6.56zm811.94 -733.29c14.83,-3.22 27.19,-3.67 42.99,0.01l-1.36 42.74c9,0 18.89,-0.52 27.67,-0.38 13.66,0.23 14.86,-1.88 18.69,8.02l-5.79 40.57 -37.28 0 -5.35 34.09c-0.22,1.09 -0.43,2.04 -0.66,3.03l-2.75 8.92c-49.34,0 -40.59,-5.62 -40.56,46.36l-137.01 0.78c0,18.79 -3.02,24.78 -0.98,44.06 0.83,7.89 1.76,16.89 1.52,25.06 -0.69,23.19 -2.54,18.15 -7.1,20.97l-41.66 -0.22c0.23,14.64 1.3,17.2 -0.56,29.05l-23.56 0 0 15.89 23.02 0 0 16.99c18.85,6.25 38.89,-6.25 42.76,9.88 -14.65,1.41 -19.61,2.8 -29.86,-0.68l-9.61 -4.26c-6.78,7.17 -9.49,5.8 -13.36,10.73 -11.21,14.3 8.87,10.99 -12.94,13.38l0 9.86c16.05,0 16.55,-1.57 24.46,5.52 0.57,0.52 1.24,1.4 1.74,1.9 0.51,0.52 1.3,1.58 1.7,2.02 4.56,4.99 26.27,-0.04 33.63,2.28 14.1,4.45 2.24,2.03 7.26,24.45l24.93 0 0 -11.52 23.19 -1.66 -0.15 -31.2c35.98,0 45.1,-16.17 46.02,21.37l6.38 -2.63c13.02,-7.13 7.54,-7.79 14.3,-14.43 5.58,-5.49 -0.65,-1.33 6,-4.5 23.1,-11.02 2.63,16.41 20.63,-16.93l7.71 -10.89c0.67,-0.77 5.65,-6 5.96,-6.28 11.3,-10 13.17,4.64 9.72,-12.57l-29.54 2.86 4.26 -48.15c20.21,-5.97 26.69,-3.2 46.65,-3.2l0.76 21.67c16.28,-0.91 6.8,1.24 16.43,-11.16 14.15,-18.26 10.69,-6.19 11.5,-50.46 16.99,-2.83 11.01,0.29 23.38,9.8 0.84,-12.77 -0.36,-5.98 4.39,-15.68 10.15,-20.73 7.29,-3.26 26.44,-19.19l5.08 -4.59c12.16,-16.11 -8.07,-8.4 18,-31.77l23.45 -22.38c9.4,-9.67 9.06,-22.76 11.42,-37.64l41.05 -1.61c11.46,-18.97 -7.5,-17.95 21.88,-15.37l0.9 -35.04c7.67,-2.01 4.62,-0.65 10.54,-5.19l3.41 -3.15c12.2,-11.45 9.26,-7.54 10.52,-22.06 12.54,5.35 14.01,-1.08 20.2,-9.81 15.87,-22.4 15.47,-16.37 21.99,-41.5 6.22,-23.98 -1.15,-6.12 15.28,-18.89 -7.93,-9.76 -8.7,-2.66 -10.33,-8.38 -0.31,-1.1 -1.47,-0.93 -2.31,-1.49l2.06 -38.18c8.73,-4.94 10.03,2.99 22.01,-10.46 25.58,-28.7 29.56,-4.34 30.81,-33.56 -0.87,-0.43 -2.03,-0.7 -2.76,-0.87l-48.24 -2.4c-5.09,6.37 -4.75,-7.23 -6.58,13.46l-42.22 -2.19c-0.86,-0.01 -3.19,0.27 -4.12,0.4l-19.55 7.1c-9.58,5.8 -3.85,1.51 -22.44,1.18l-3.74 13.67 -56.45 -0.2c0.06,0.06 4.02,12 10.71,4.52 -5.31,9.35 2.88,6.67 -12.42,6.77 -0.02,0 -19.89,-12.17 -33.92,18.63 -21.09,2.05 -23.13,5.23 -45.54,2.5 -3.62,23.95 -13.54,6.58 -36.95,21.91 -20.27,13.27 -1.5,12.46 -29.89,11.23 -14.74,-0.64 -15.83,3.97 -24.05,6.22l-0.82 42.75c10.95,-6.69 8.89,9.23 9.02,-9.85zm-419.26 685.62l-1.64 21.38 -23.02 0 0.01 23.02 -23.03 0c0,51.03 0.03,31.55 6.56,39.43 26.27,0 22.04,6.85 23,-16.44l16.47 -0 0 32.9c-9.52,0.06 -23.93,0.95 -32.83,0.39 -23.67,-1.5 1.92,-6.66 -25.83,-10.37 -17.02,-2.28 -58.19,0.14 -77.74,0.14l-0.34 22.98 -0.28 26.32 -41.67 0c0,36.19 -2.25,60.64 -5.18,95.35l-0.27 6.59c-51.02,2.11 -38.82,-9.07 -42.75,13.15 7.62,7.74 -1.82,3.17 12.95,5.68l46 2.67c17.28,0.02 41.26,-5.12 63.02,-3.64 22.06,1.5 10.6,7.09 24.07,5.01 7.08,-1.1 3.33,-2.01 11.83,-3.63 6.23,-1.19 9.96,-1.05 16.23,-1.2 23.81,-0.57 42.61,0.01 65.92,0.94l263.06 2.17c18.8,-21.02 21.11,7.21 21.38,-19.5l87.1 -1.7c14.01,-0.56 16.69,-2.54 26.34,0.07 0.48,-71.24 12.26,-45.87 -44.46,-54.28l0.08 -44.22 -42.76 -1.81 0.03 46.04 -26.32 0 0 -23.02 -29.59 0 -19.76 46.83 -42.72 -0.79 0 -23.02c-20.5,0 -17.05,-1.8 -19.72,-6.58l-19.75 0 -0 16.44 -26.29 0 0 -9.87 -46.04 0c-2.61,-10.04 1.17,-6.93 -17.83,-7.02 -20.71,-0.1 -20.55,2.28 -33.33,3.72l-40.91 1.67 -0.01 -77.27 23.02 0 0 -16.44 23.02 0 0 -23.02 23.02 0 -0 -23.02 23.02 0 0.02 -23.02 46.02 0 0 -65.78 -23.02 0 0 -32.87 22.65 -0.04 2.81 -13.13 -46.78 -1.63 -0.07 46.04 -91.84 0 -1.87 44.4zm-662.48 -418.19c7.6,13.56 17.26,4.96 19.35,15.36l-2.56 36.38 94.39 0.35 0 22.96 46.03 0 0.01 23.02 22.98 0 0.04 23.02 47.06 0 -0.01 -23.02 42.24 0.15c5.59,7.7 1.65,9.93 6.58,18.45l177.57 0c4.92,-8.5 1.08,-10.87 6.57,-18.47 27.5,0 82.78,-2.41 107.96,0.3 14.01,1.5 16.74,3.59 16.74,-17.24 -23.47,-3.07 -75.05,0 -102.31,0l0 -10.62c26.35,0 21.04,5.17 47.52,1.06l77.89 -0.8c13.49,0.76 7.17,2.58 23.17,3.7 18.41,1.29 35.57,-2.04 53.91,-2.04l2.16 -27.81 22.87 -0.09c1.68,-31.26 13.66,5.94 13.66,-35.85l8.86 0 0 20.24 24.03 0 -0.8 -36.15c41.96,-0.2 5.85,8.34 45.94,6.06l-1.63 -53.76 -2.47 12.84 -41.55 0.07c-5.62,6.47 -5.77,15.56 -6.58,18.65 -23.76,-0.06 -21.41,-1.67 -39.26,8.96 -21.96,13.08 -15.63,0.67 -15.65,20.83l-18.92 1.35 -5.72 -17.63c-29.81,4.06 -187.39,2.75 -222.96,0.27 -39.31,-2.74 -73.22,2.93 -111.8,1.88 -39.58,-1.08 -66.23,-5.39 -107.86,-1.47l17.66 3.72c-37.23,3.66 -13.23,-5.77 -39.02,-0.77 -23.11,4.48 -57.46,-5.75 -81.37,-2.93 -23.85,2.81 -4.39,9.04 -25.82,10.71 -10.92,0.85 -63.36,-9.06 -98.87,-1.63zm821.96 -64.21l22.99 3.44 0.15 68.24 88.67 -0.65c4.56,-2.82 6.41,2.22 7.1,-20.97 0.24,-8.18 -0.68,-17.17 -1.52,-25.06 -2.04,-19.28 0.98,-25.27 0.98,-44.06l137.01 -0.78c-0.02,-51.98 -8.78,-46.36 40.56,-46.36l2.75 -8.92c0.23,-0.99 0.43,-1.93 0.66,-3.03l5.35 -34.09 37.28 0 5.79 -40.57c-3.83,-9.91 -5.02,-7.8 -18.69,-8.02 -8.78,-0.15 -18.67,0.38 -27.67,0.38l1.36 -42.74c-15.8,-3.69 -28.16,-3.23 -42.99,-0.01l-0 19.75c-6.46,2.97 -9.86,-0.52 -9.86,23.02l-46.06 0 0.2 46.04 -46.13 0.1 -0.09 45.93 -115.11 0.06c0,-15.11 4.86,-22.76 -9.24,-24.11 -17.2,-1.65 -0.96,-3.69 -10.06,7.11l-10.26 13.63c0.43,0.98 1.61,1.06 1.94,2.57l3.57 4.59c0.39,0.55 1.14,1.36 1.52,1.96 0.33,0.53 0.96,1.26 1.25,1.82 0.91,1.76 6.47,32.53 -1.54,37.46 -5.94,3.65 -0.89,-0.09 -7.05,2.09l-9.49 3.72c-1.04,0.44 -2.36,0.93 -3.36,1.67l0 15.79zm-115.12 -2.48c-2.35,12.2 0.02,11.05 -9.87,16.29 3.06,4.83 1.54,1.55 7.94,-1.96 0.78,-0.42 3.41,-1.98 4.2,-2.52l25.92 -31.39c8.2,-12.51 19.83,-15.99 29.59,-27.97 8.54,-10.47 6.46,-14.37 15.11,-24.61 12.8,-15.16 29.65,-23.68 39.64,-39.44l13.92 -15.32c8.94,-9 29.69,-22.05 36.73,-31.8 0.37,-0.5 0.87,-1.34 1.21,-1.87 16.17,-24.83 26.09,-29.24 53.99,-41.46 12.33,-5.39 14.1,-9.62 25.46,-14.19l146.03 -47.43c11.4,-3.48 19.33,-7.86 28.52,-10.71l94.48 -24.83c13.06,-3.39 16.72,-7.39 27.74,-9.83 35.94,-7.97 71.61,-23.17 103.68,-36.39l46.08 -13.31c33.35,-4.64 24.32,-17.67 65.96,-7.87 7.39,1.74 5.2,1.87 11.27,-0.92l50.18 -4.19c-7.79,16.37 -16.5,11.07 -22.53,27.69 -2.78,7.65 -1.03,6.89 -6.04,14.58l-25.38 24.68c-0.41,0.31 -1.3,0.92 -1.7,1.16 -0.35,0.21 -1.27,0.67 -1.59,0.81l-4.63 0.14c-1.22,11.67 1.02,10.24 -5.2,17.92l-11.46 5.1c-0.39,14.45 -7.52,25.49 -13.37,30.91 8.97,-1.91 9.29,-8.98 17.27,-12.92l-1.24 11.59c-1.59,5.96 -0.74,4.09 -4.12,11.41 -7.46,16.12 -24.83,29.54 -33.69,45.66 -15.22,27.69 -4.39,11.55 -16.18,19.82 -0.42,0.3 -1.17,0.95 -1.61,1.28 -0.46,0.35 -1.16,1.08 -1.63,1.46 -0.5,0.4 -1.2,1.13 -1.72,1.56 -6.93,5.56 -9.94,2.02 -15.13,12.59l-3.71 11.23c-11.85,21.18 -30.27,42.48 -43.85,61.98l-36.66 45.39c-10.72,13.67 -3.78,8.35 -17.92,20.96l-28.37 31.35c-8.83,12.67 -15.99,7.81 -23.11,19.01l-31.84 67.09c-13.38,0.76 -5.76,-2.24 -12.02,0.24l-5.04 1.42c-5.22,-2.63 -1.71,3.02 -3.71,-6.26 -1.58,15.76 -3.3,11.56 -11.81,21.24l-17.35 16.21c-11.25,8.26 -5.28,7.64 -12.36,19.54 -4.93,8.29 -11.09,11.93 -16.54,22.97l-8.16 21.82c-4.85,10.17 -2.38,3.04 -6.71,10.17 -6.28,10.35 -5.91,16.65 -16.95,24.59 -12.4,8.93 -13.15,16.45 -22.55,27.75 -0.4,0.48 -1.06,1.19 -1.48,1.66l-36.48 45.87c-13,16.44 -2.16,11.78 -22.92,28.89 -8.16,6.74 -1.75,-0.34 -7.75,9.55 -4.38,7.22 -6.43,14.01 -12.76,19.79l-7.38 4.62c-0.54,0.42 -3.56,-2.84 -5.13,7.54 -4.43,29.44 8.83,-1.56 7.53,24.48 -1.28,-14.83 3.76,-14.57 19.43,-35.09l176.22 -221.8c31.52,-39.47 65.51,-83.48 99.5,-127.52 17.65,-22.87 32.53,-41.98 50.24,-64.57 8.3,-10.59 16.32,-20.93 24.72,-31.35l21.63 -27.19c5.54,-4.92 -0.21,-1.42 4.74,-2.98 8.26,-22.93 156.2,-204.93 195.09,-261.31l15.37 -18.58c0.95,-8.81 -1.01,-4.69 4,-5.8 6.39,-14.24 13.58,-17.51 18.95,-35.31 -56.06,8.06 -456.68,135.7 -509.73,153.72 -44.2,15.02 -148.24,44.39 -185.85,60.28 -14.61,6.17 -24.06,20.82 -42.49,40.35l-117.82 128.96c-10.02,12.51 -35.76,39.35 -36.85,45.39zm276.66 440.46c9.7,3.7 25.81,28.25 26.63,30.75 3.69,11.35 -7.42,6.91 5.14,18.89 14.4,13.72 13.25,-9.9 16.95,49.04 10.42,4.07 19.54,14.01 26.77,23.07 12.78,16.06 30.78,18.58 30.85,18.48 0.5,-0.81 1.9,0.62 2.7,1.19 -3.35,10.73 -5.06,8.81 -14.94,13.15 0.15,24.24 6.22,19.57 8.77,21.26l8.5 5.05c-0.64,0.7 -1.52,1.56 -1.9,2.11l-4.13 6.84c-0.33,0.81 -0.48,1.69 -0.77,2.53 -12.23,35.89 -11.09,1.13 -10.15,35.33 34.74,0.96 37.19,3.09 68.76,13.49 0.34,19.3 0.88,14.83 -10.14,21.54 -21.14,12.87 -10.48,12.31 -23.44,22.13l-25 18.91 -3.06 8.67c-82.48,5.92 -182.46,2.08 -269.66,2.34 -30.03,0.09 -53.06,4.44 -85.74,4.41 -17.06,-0.02 -21.98,-4.83 -39,-5.79 -58.42,-3.3 -161.96,5.84 -223.8,5.61 -24.02,-0.09 -75.73,8.74 -82.23,0.01 -17.69,0 -17.7,-4.33 -24.52,5.96 2.17,17.27 44.93,10.83 60.7,10.79l517.16 -2.36c17.47,-10.7 64.24,-3.65 87.89,-3.81 15.38,-0.11 30.78,-0.16 46.15,-0.29 20.27,-0.17 26.29,-5.2 35.63,-5.52 -2.72,-12.74 -0.53,-18.71 7.98,-26.66 0.52,-0.48 1.35,-1 1.87,-1.48 0.52,-0.48 1.32,-1.05 1.83,-1.55 0.51,-0.5 1.24,-1.15 1.73,-1.68l47.15 -51.41c0.62,-0.74 2.35,-2.92 2.99,-3.63 12.44,-14.07 12.84,-9.61 10.03,-30.82 -1.06,-7.53 -38.42,-49.95 -44.83,-57.24 -16.29,-18.51 -33.78,-36.19 -49.86,-55.41 -8.37,-10 -84.95,-102.75 -97.77,-108.17 -7.57,4.56 -5.98,-5.88 -5.22,14.28zm-659.54 278.43c0.05,-0.03 15.48,-1.65 1.65,-21.23l-45.21 -62.43c-8.34,-23.34 -4.59,-21.27 -24.61,-42.35 -5.66,-5.96 -3.71,-3.36 -7.81,-9.31l-63 -87.52c-0.35,-0.61 -0.82,-1.45 -1.2,-2.06l-2.75 -3.95c-9.97,-14.64 -11.78,-23.35 -11.94,-44.27 -11.17,-2.3 -17.84,-1.38 -26.85,-8.57 0.88,-10.98 15.72,-34.62 -4.26,-38.28l-0.89 24.51c-7.41,-4.78 -9.16,-7.22 -19.48,-8.2 -5.66,-41.17 -10.39,-26.53 -9.3,-48.48 0.32,-6.5 1.06,-8.1 0.56,-15.69l-22.06 -0.17c-2.45,-46.53 2.7,-18.37 1.86,-45.24 -11.06,-0.74 -25.18,14.06 -25.48,-23.92l-35.96 -13.83c-12.92,-16.16 -3.17,-15.26 -23.79,-27.64 -19.95,-11.97 -8.55,0.26 -8.79,-22.11 -8.88,-0.99 -9.71,-1.07 -23.1,-9.89 -0.56,-0.37 -1.33,-1.02 -1.85,-1.38l-41.45 -48.42c-6.75,-14.36 -9.55,-13.92 -17.45,-23.31 -0.43,-0.51 -1.06,-1.24 -1.47,-1.77 -0.42,-0.53 -0.99,-1.31 -1.39,-1.86 -18.73,-25.21 -18.29,-27.32 -42.39,-53.19 -3.64,-3.9 -3.19,-3.05 -5.27,-6.76l-6.27 -14.11c-5.07,-8.59 -4.44,-5.67 -10.2,-11.56 15.34,-9.32 123.04,-9.57 150.98,-5.77 10.19,1.38 119.35,5.23 133.48,1.83 5.48,-1.32 4.11,-1.58 8.98,-3.72 7.99,-3.5 -5.21,-7.69 20.13,-4.44l-345.76 -11.87c4.34,11.59 108.53,148.97 126.89,174.02 21.41,29.2 43.13,56.5 65.01,86.4 20.41,27.89 43.93,58.3 63.67,87.61 22.89,33.98 44.01,58.5 63.76,87.43 45.97,67.33 138.82,187.64 193.02,261.51zm62.3 -107.44l-1.7 16.44 42.81 0 0.01 9.9 -33.09 0.65c-7.64,1.19 -6.79,1.44 -9.66,2.63 -0.31,1.02 -0.43,2.31 -0.5,3.13l-0.53 49.04c0.03,3.96 0.95,11.92 1.03,16.85 40.09,0 18.05,0.04 25.51,4.64 1.88,1.16 -1.33,2.32 13.13,5.37l36.78 1.48c1.69,0.02 26.43,7.11 16.93,-1.63 2.93,-34.71 5.18,-59.16 5.18,-95.35l41.67 0 0.28 -26.32 -47.4 0 0 -32.87c-51.41,-0.34 -44.42,6.12 -44.42,-32.88l-44.25 0 -1.77 78.9z"/>
   <path class="fil1" d="M3979.65 2311.84c1.45,38.78 4.42,40.91 -29.33,37.12 -0.74,-10.22 19.81,5.56 -14.37,-14.4 -29.34,-17.13 -23.82,-20.19 -41.94,-26.33l-15.44 -8.13c-13.91,-10.23 -19.18,-8.24 -36.76,-5.94 -5.24,-24.1 -10.19,-14.06 -20.91,-28.42 -7.15,-9.57 -5.51,-21.03 -6.21,-28.18 -1.69,-17.38 -3.23,-10.66 -7.67,-20.2 -6.4,-13.77 2.23,-15.26 -8.82,-22.11 -0.66,-0.41 -1.63,-0.68 -2.37,-0.94l-19.8 0.8c0,-9 -0.23,-17.41 -0.5,-26.36l-0.65 -25.17c-26.44,-5.57 1.66,1.33 -15.27,7.06 -7.24,-8.44 -5.69,-6.54 -20.23,-9.02 -8.72,-1.49 -17.42,-1.5 -26.35,-1.87 -4.88,12.68 -2.2,42.53 -2.19,59.17l-46.04 0 0 46.04c-11.01,0 -21.38,-1.83 -30.45,-1.92 -23.37,-0.22 -8.16,1.59 -21.38,6.34 -25.78,9.24 -2.39,-5.88 -49.81,-5.31 5.78,16.84 -3.35,5.07 14.39,10.11 0.36,0.1 13.77,2.27 15.3,2.46 -0.91,38.5 8.21,23.93 23.37,30.52 6.38,65.74 9.71,17.69 11.45,52.63 6.8,-5.1 12.94,-7.46 23.58,-3.3 -3.65,17.06 -2.36,-0.32 -14.19,16.44 12.17,12.87 13.55,7.76 20.74,13.42 4.31,3.39 6.14,12.86 9.74,18.28 9.8,-3.28 6.17,-4.37 13.15,-11.47 10.43,8.41 10.9,3.14 17.68,14.01l15.21 20.5c14.04,-0.2 27.17,1.89 37.81,-3.62 3.36,67.72 -1.32,32.48 19.1,62.97 34.64,-9.93 -5.72,1.65 31.46,7.06 10.73,1.56 31.13,2.7 40.2,3.54l4.09 62.06c20.89,-1.04 23.82,-5.64 45.04,0.68l0.61 25.58c12.58,-0.01 14.8,0.58 23.11,4.03 -0.01,7.95 0.36,20.8 -0.91,28.28 -2.3,13.51 -4.18,5 -5.12,23.8 17.54,12.58 3.38,7.07 15.92,20 11.89,5.77 -3.28,5.57 12.29,3.53 4.56,-8.81 -0.35,-13.19 -6.59,-16.42 2.63,-11.02 7.95,3.88 10.43,-16.44 -18.7,-12.52 -15.71,7.42 -18.02,-11.63 -2.39,-19.8 4.85,-11.96 17.47,-17.96l0.61 -17.57 42.35 0.02 2.15 -182.22c22.91,-7.55 66.72,-3 91.88,-3l0 43.84c11.27,2.25 9.41,2.33 18.4,-1.43 11.17,-4.67 6.94,-4.06 25.45,-4.06l0 -79.92c-15.36,1.72 -9.85,-5.22 -9.85,-22.04 -10.15,-4.04 -12.28,-1.89 -23.02,0l0 -23.02c-1.02,-0.41 -6.43,-1.48 -7.41,-1.95 -0.61,-0.3 -5.5,-2.96 -5.89,-3.19 -1.23,-0.74 -2.13,-1.58 -3.17,-2.25 -1.09,-0.7 -2.3,-1.49 -3.26,-2.44 8.34,-6.22 -0.31,-22.43 4.2,-33.1 4.81,-11.37 -3.15,-4.1 8.94,-9.65 6.69,3.46 11.44,-1.17 7.66,14.71l-1.94 1.99c-0.12,0.09 -1.09,0.01 -1.2,0.05 -0.12,0.04 -1.03,0.06 -1.23,-0.31l22.43 5.3c13.07,4.78 10.35,5.09 10.46,21 3.29,-2.24 51.51,-11.81 51.91,9.1 0.17,8.7 1.85,4.01 -2.57,7.34 6.46,-8.8 -1.5,-2.73 9.61,-5.83 35.69,-9.96 52.19,16.48 98.87,5.83l7.04 11.21c0.39,0.09 1.5,-1.68 1.85,-0.91l6.52 -1.87c12.96,1.41 0.93,-5.51 7.61,4.69 -16.19,5.43 -7.52,0.75 -19.78,1.56 -5.69,0.37 -7.25,1.48 -14.2,1.75 6.81,18.5 36.44,5.52 53.97,8.05 20.25,2.92 -3.65,3.72 25.87,9.1 48.51,8.83 39.61,16.97 53.36,19.09l35.38 10.3c45.17,34.67 28.52,0.77 44.13,21.59 0.57,0.76 3.3,6.03 3.77,6.98l8.78 15.54c5.39,10.92 2.72,30.39 2.72,44.15l-82.19 0 -0.02 23.02 -39.42 0 -0.01 -52.61 -39.49 0c0,1.85 0.38,12.48 0.24,13.33 -1.17,7.15 1.14,-1.2 -1.54,6.63 -3.09,9.06 -0.09,3.39 -5.25,9.63l-16.44 0c-5.02,-6.06 -3.59,-2.61 -6.22,-12.74 -0.55,-2.13 -0.34,-7.86 -0.34,-10.28l-23.02 0 0 -23.02c-18.36,0 -19.57,3.51 -23.04,-13.15 -12.14,0 -11.35,0.6 -20.61,-5.19 -11.69,-7.3 -7.67,-4.68 -25.41,-4.68l0 -23.02 -16.48 0 0 32.88 -26.94 0c2.84,14.78 2.36,15.39 2.29,31.26l90.44 1.52 0.3 45.61 45.73 0.7 0.3 45.88 91.77 0 0.3 46.03 92.66 0.17c-6.29,-30.84 -4.16,-60.51 -4.16,-92.22 22.26,0 23.86,-4.93 38.24,5.94l-11.63 -15.83 8.99 -1.23c0.04,0.33 -7.36,1.46 0.71,3.04 4.2,0.82 5.73,-2.57 14.32,-8.37l0.72 1.13 -1.53 -11.13c7.3,-6.07 12.89,-11.48 21.1,-21.04 6.06,-7.04 13.69,-13.26 15.41,-24.89 -0.81,-0.5 -2,-0.79 -2.67,-1 -36.47,-11.75 -11.59,-5.36 -26.39,-13.46 -3.57,-1.96 -24.9,-7.1 -30.52,-9.22 -20.24,-7.62 -38.23,-14.1 -59.06,-19.85 -11.77,-3.26 -16.96,-5.07 -31.76,-8.66l-26.19 -11.75c-13.19,-10.5 -19.69,-5.99 -25.57,-9.07 -0.23,-0.12 -7.26,-6.35 -10.1,-7.98 -6.32,-3.64 -8.74,-3.78 -15,-5.34 -22.28,-5.56 -39.13,-11.84 -59.68,-18.72 -23.24,-7.79 -35.47,-10.73 -63.04,-16.99 -27.41,-6.22 -35.94,-12.42 -58.05,-19.61 -17.21,-5.59 -51.08,-10.34 -56.83,-19.9 -8.88,-3.96 -3.36,-0.76 -8.94,-6.78 -0.95,-1.02 -3.47,-6 -3.85,-6.61 -21.75,4.17 1.33,8.41 -9.66,2.04 -13.78,-8 -11.5,-31.98 -8.36,-45.8l-42.89 0c-2.52,19.23 -7.66,17.99 -14.73,18.72 -9.4,-14.27 -1.65,0.66 -3.76,-10.61 -0.87,-4.66 -0.59,-9.32 -0.74,-14.02l-21.8 2.52c-5.13,-21.44 0.03,-37.36 -3.32,-60.68 -2.15,-14.92 -3.87,-43.3 -2.22,-57.15 -2.25,-8.74 4.8,-1.54 -4.32,-8.01 -8.07,18.44 -5.83,227.81 -3.56,260.83zm141.66 26.94l0 79.92c-18.51,0 -14.28,-0.61 -25.45,4.06 -8.99,3.76 -7.13,3.68 -18.4,1.43l0 -43.84c-25.16,0 -68.98,-4.55 -91.88,3l-2.15 182.22 1.38 45.15 44.77 -0.19c17.2,0 79.88,-5.5 93.93,5.47 -2.03,18.54 2.31,13.13 -14.87,14.78 -17.93,1.71 -70.26,-7.4 -72.83,4.95 19.78,0.3 73.65,-2.82 88.8,4.38l0 15.35 92.07 0 0 18.62c27.46,0 35.98,-4.33 40.57,8.79l-40.56 -1.25 -0 19.87 43.84 0 0.98 43.85 47.25 2.48 0 18.33 225.76 0 -0.6 -16.47 -45.39 0.02c0.19,-23.33 3.16,-20.81 -1.1,-46.04l-37.28 0c-0.69,-0.88 -1.24,-3.48 -1.52,-2.97l-8.34 -18.92c-17.2,0 -80.76,4.03 -82.22,-3.3 16.43,-0.11 24.94,-3.48 42.62,-4.09 49.36,-1.71 41,7.3 42.89,-12.35 -9.79,-6.2 -31.19,-3.29 -42.75,-3.29l-2.18 -16.44c4.78,-3.73 2.2,-5.89 25.13,-5.78l200.66 0.31 6.57 19.73 44.72 1.09 44.07 1.2 1.26 -46.14 44.78 0 0 -48.22 -48.19 0 -0.23 42.75c-13.43,-3.93 0.13,-14.7 -7.48,-42.77l-37.26 0.14 0 43.71 -20.74 2.18 -21.82 2 -3.7 13.06 -65.69 1.81 -2.05 -17.96 -23.02 0c0,-34.32 9.75,-6.39 46.69,-17.76 -2.23,-7.3 2.03,-11.31 -23.71,-10.74 -26.51,0.59 -9.05,0 -30.34,-6.67l-10.69 -2.82c-14.14,-6.15 -2.18,-8.77 -27.09,-7.88l-92.66 -0.17 -0.3 -46.03 -91.77 -0 -0.3 -45.88 -45.73 -0.7 -0.3 -45.61 -90.44 -1.52c0.07,-15.87 0.55,-16.49 -2.29,-31.26l-0.56 -32.98c-1.83,-30.48 -0.05,-12.77 3.18,-36.71l-44.06 1.31 -3.95 14.79zm530.61 271.73l20.74 -2.18 0 -43.71 37.26 -0.14c7.61,28.07 -5.94,38.83 7.48,42.77l0.23 -42.75 48.19 0 0 48.22 -44.78 0 -1.26 46.14 -44.07 -1.2 0.15 45.8 -92.23 0 -0.04 110.06c-0.14,1.28 -0.33,2.1 -0.5,3.24l-1.43 6.39c-2.87,1.19 -2.02,1.45 -9.65,2.63l-33.09 0.66 0 62.48 -52.58 0.1 -0 -46.14 -86.18 0c0.07,29.15 2.27,60.52 -2.61,88.8 14.69,1.48 11.17,-5.44 11.17,13.17 2.65,0 21.98,-0.81 22.15,-0.79 22.85,3.38 12.16,-5.74 15.99,17.2 -12.52,4.7 -19.87,3.29 -36.15,3.29l-2.17 13.16 -55.04 -2.4c-0.02,-6.3 -0.85,-10.43 -1.23,-15.93l0.56 -65.19 -25.64 0 0 36.17 -20.4 0 -0.8 -67.75c-0.01,-7.13 0.8,-15.11 0.8,-23.02l-24.33 0 0 23.02 -23.02 0 0 46.04 -19.73 0 0 9.87c17.63,0 11.09,0.81 23.08,-7.22l9.79 -5.91 6.65 71.64c16.01,3.74 14.59,-7.43 15.3,20.42 31.92,6.77 0.62,7.8 21.48,12.83 2.82,0.68 9.33,0.32 12.5,0.32 1.67,-15.26 3.01,-9.86 23.02,-9.86l0 23.02 95.36 0c0,20.39 -5.05,18.79 9.87,26.28 10.5,-9.46 6.58,-9.41 6.58,-26.28l27.61 0.65 44.73 -0.07 0.77 -45.31 43.98 -0 -0.02 46.69 44.04 -2.34 0 -19.37c1.85,0 12.48,0.38 13.33,0.24l16.26 -6.8 0 -16.44c-6.06,-5.02 -2.61,-3.59 -12.74,-6.22 -2.12,-0.55 -7.86,-0.34 -10.27,-0.34l0 -39.49 46.04 0 -0 -69.06 23.01 0 0 -69.05 23.02 0 0 -29.6c23.36,0 18.28,-0.23 21.42,-6.89 9.67,-20.51 -4.83,-14.15 -16,-17.06 -31.92,-8.3 -7.35,-5.61 -51.45,-5.61l0 -23.05 46.05 0 -0.02 -32.89 16.48 0.01c0,12.15 -0.6,11.36 5.19,20.63 0.37,0.59 1.14,1.17 1.49,1.72 5.37,8.61 3.19,10.55 3.19,23.68 10.83,4.17 9.15,0.45 13.81,11.01 4.11,9.31 -13.11,11.87 12.5,12.02l0 92.06 36.22 0 1.48 -92.06c1.06,-0.23 5.48,-0.87 6.33,-1.19l11.19 -5.39c-0.04,-15.39 -1.56,-31.1 -1.65,-46.41 -0.12,-20.67 5.67,-20.83 3.16,-45.57 -2.32,-22.88 1.98,-66.37 -1.43,-79.42 -2.25,-8.6 -0.98,-6.34 -4.68,-11.41 9.2,-3.15 11.41,-6.82 14.33,-16.24 -5.74,-6.39 -14.61,-4.83 -25.5,-4.83 -6.78,-8.19 -6.56,12.27 -6.56,-16.44l-5.41 -0c0,11.91 1.04,9.09 -2.69,17.65 0,-12.2 0.56,-15.35 -5.07,-23.3 -29,6.73 -108.81,3.27 -143.5,3.27l0 88.98zm-369.48 229.09l24.33 0c0,7.91 -0.81,15.89 -0.8,23.02l0.8 67.75 20.4 0 0 -36.17 25.64 0 -0.56 65.19c0.39,5.49 1.22,9.63 1.23,15.93l55.04 2.4 2.17 -13.16c16.28,0 23.64,1.41 36.15,-3.29 -3.83,-22.94 6.86,-13.82 -15.99,-17.2 -0.16,-0.02 -19.5,0.79 -22.15,0.79 0,-18.61 3.52,-11.69 -11.17,-13.17 4.89,-28.28 2.68,-59.65 2.61,-88.8l86.18 -0 0 46.14 52.58 -0.1 0 -62.48 33.09 -0.66c7.63,-1.18 6.79,-1.44 9.65,-2.63l1.43 -6.39c0.17,-1.14 0.36,-1.96 0.5,-3.24l0.04 -110.06 92.23 0 -0.15 -45.8 -44.72 -1.09 -6.57 -19.73 -200.66 -0.31c-22.93,-0.11 -20.35,2.05 -25.13,5.78l2.18 16.44c11.56,0 32.96,-2.92 42.75,3.29 -1.89,19.65 6.47,10.64 -42.89,12.35 -17.67,0.61 -26.19,3.98 -42.62,4.09 1.46,7.33 65.02,3.3 82.22,3.3l8.34 18.92c0.28,-0.51 0.84,2.09 1.52,2.97l37.28 0c4.26,25.22 1.29,22.71 1.1,46.04l45.39 -0.02 0.6 16.47 -225.76 0 -0 -18.33 -47.25 -2.48 -0.98 -43.85 -43.84 0 0 -19.87 40.56 1.25c-4.59,-13.12 -13.11,-8.79 -40.57,-8.79l0 -18.62 -92.07 0 0 -15.35c-15.16,-7.2 -69.02,-4.08 -88.8,-4.38 2.57,-12.35 54.9,-3.24 72.83,-4.95 17.17,-1.65 12.83,3.77 14.87,-14.78 -14.05,-10.97 -76.72,-5.47 -93.93,-5.47l-0.37 44.93 46.07 0 0 46.04 46.04 0 0 46.04 46.04 0 1.34 79.19c-1.1,17.33 -4.43,6.57 -12.84,19.46 4.49,9.17 0.26,2.58 5.74,8.72 9.37,10.52 -3.38,1.11 5.76,4.44l3.03 -19.78 112.06 0.04zm-521.21 -338.67c-7.7,-18.94 -2.47,-3.21 1.67,-8.72l60.44 60.21c16.13,23.54 28.78,27.63 40.71,38.49l49.17 48.7c3.07,3.95 1.64,2.57 4.58,5.83l3.95 3.92c0.49,0.5 1.41,1.35 2.14,1.98l1 -9.29c-12.54,-12.93 1.62,-7.43 -15.92,-20 0.94,-18.8 2.82,-10.29 5.12,-23.8 1.27,-7.48 0.9,-20.33 0.91,-28.28 -8.31,-3.45 -10.53,-4.04 -23.11,-4.03l-0.61 -25.58c-21.21,-6.32 -24.15,-1.72 -45.04,-0.68l-4.09 -62.06c-9.07,-0.83 -29.47,-1.98 -40.2,-3.54 -37.19,-5.41 3.18,-16.98 -31.46,-7.06 -20.42,-30.49 -15.74,4.74 -19.1,-62.97 -10.64,5.52 -23.77,3.42 -37.81,3.62l-15.21 -20.5c-6.78,-10.87 -7.25,-5.59 -17.68,-14.01 -6.98,7.09 -3.35,8.19 -13.15,11.47 -3.61,-5.42 -5.44,-14.89 -9.74,-18.28 -7.19,-5.67 -8.57,-0.55 -20.74,-13.42 11.83,-16.76 10.54,0.61 14.19,-16.44 -10.64,-4.17 -16.78,-1.8 -23.58,3.3 -1.74,-34.94 -5.07,13.12 -11.45,-52.63 -15.16,-6.59 -24.28,7.98 -23.37,-30.52 -1.52,-0.19 -14.94,-2.35 -15.3,-2.46 -17.74,-5.04 -8.61,6.72 -14.39,-10.11 -7.41,2.33 -14.05,4.43 -18.93,-4.36 -9.12,-16.4 11.04,-0.06 -2.62,-14.19 -6.64,-6.87 -0.49,0.37 -8.57,-3.78 -17.03,-8.74 -4.73,-10.59 -19.11,-17.81 0.74,-0.88 1.87,-1.71 2.48,-2.39l5.76 -6.6c10.78,-19.08 -14.96,-26.34 -19.74,-39.94 -4.22,-12 -2.18,-31.94 -2.18,-45.41 -10.46,-1.61 -10.25,-0.2 -19.73,-3.69 4.5,-5.41 2.18,-8.99 22.76,-9.79 3.55,-0.13 11.94,0.67 16.48,0.67 4.45,-7.61 2.96,-13.64 6.41,-23.09 31.04,0 18.63,-1.16 43.05,11.89l4.2 2.15c27.81,12.58 49.05,8.52 57.53,11.19 5.81,1.83 16.94,17.32 56.33,12.54l5.05 16.37c21.46,1.38 11.28,-2.16 20.71,11.91 8.94,0.37 17.64,0.38 26.35,1.87 14.54,2.49 12.98,0.58 20.23,9.02 16.93,-5.74 -11.17,-12.64 15.27,-7.06l0.65 25.17c0.27,8.95 0.5,17.36 0.5,26.36l19.8 -0.8c0.74,0.26 1.71,0.53 2.37,0.94 11.05,6.85 2.42,8.34 8.82,22.11 4.44,9.54 5.97,2.82 7.67,20.2 0.7,7.15 -0.94,18.61 6.21,28.18 10.72,14.36 15.68,4.32 20.91,28.42 17.57,-2.29 22.85,-4.29 36.76,5.94l15.44 8.13c18.12,6.14 12.6,9.2 41.94,26.33 34.18,19.96 13.63,4.19 14.37,14.4 33.75,3.78 30.78,1.66 29.33,-37.12l-7.95 29.19c-5.11,-0.22 -2.28,0.91 -3.98,-5.76 -9.27,-0.17 -40.71,-22.37 -58.45,-33.3 -17.17,-10.59 -39.05,-25.81 -55.38,-37.82l-0.32 -111.8c-16.55,-8.88 -39.38,-12.58 -51.64,-19.92 -8.22,-4.92 -1.69,-0.39 -6.02,-4.45 -10.5,-0.77 -57.81,-17.76 -65.93,-22.61 -53.19,-13.39 -248.69,-95.17 -277.19,-94.93 -14.97,21.23 -53.99,55.7 -76.66,82.72 4.39,18.95 164.55,177.93 190.56,206.05l143.5 152.42c7.68,7.39 17.42,17.44 24.67,24.66 10.24,10.2 14.4,17.72 26.35,24.64zm163.65 141.12l-1 9.29c13.51,16.94 35.53,33.26 49.14,47.12l30.56 32.13c2.55,2.88 1.96,2.57 4.24,5.54 17.56,22.92 23.47,23.68 35.3,36.99l130.24 139.44c27.28,21.61 123.7,128.19 126.63,130.47 22.8,16.96 16.54,8.48 31.79,16.88 -3.28,9.87 -3.15,3.45 -3.63,17.02 34.53,17.67 7,5.59 26.94,21.7 12.04,9.73 27.86,9.33 42.99,5.4 21.57,-3.67 45.49,-1.09 67.69,-1.45 24.3,-0.4 48.08,-4.48 70.85,-5.84 3.56,-11.43 2.27,-15.67 2.29,-29.57 -8.64,0.28 -43.38,-0.32 -44.32,3.68l-5.2 6.31c-11.96,10.05 -72.41,4.07 -82.64,-0.79 2.06,-5.39 -4.18,-11.49 19.83,-10.39l14.73 2.11c14.78,0.83 34.21,-0.28 49.61,-0.28l0 -43.41 -27.61 -0.65c0,16.87 3.92,16.83 -6.58,26.28 -14.91,-7.49 -9.87,-5.89 -9.87,-26.28l-95.36 0 0 -23.02c-20.01,0 -21.35,-5.4 -23.02,9.86 -3.16,0 -9.68,0.36 -12.5,-0.32 -20.86,-5.03 10.44,-6.06 -21.48,-12.83 -0.71,-27.85 0.71,-16.68 -15.3,-20.42l-6.65 -71.64 -9.79 5.91c-11.99,8.04 -5.45,7.22 -23.08,7.22l0 -9.87 19.73 0 0 -46.04 23.02 0 0 -23.02 -112.06 -0.04 -3.03 19.78c-9.14,-3.34 3.61,6.07 -5.76,-4.44 -5.48,-6.15 -1.26,0.44 -5.74,-8.72 8.41,-12.89 11.74,-2.13 12.84,-19.46l-1.34 -79.19 -46.04 0 0 -46.04 -46.04 0 0 -46.04 -46.07 0 0.37 -44.93 -44.77 0.19 -1.38 -45.15 -42.35 -0.02 -0.61 17.57c-12.62,6 -19.86,-1.83 -17.47,17.96 2.31,19.05 -0.68,-0.89 18.02,11.63 -2.48,20.33 -7.8,5.43 -10.43,16.44 6.25,3.24 11.16,7.61 6.59,16.42 -15.57,2.04 -0.41,2.24 -12.29,-3.53zm620.26 -182.93l-2.94 1.35c-7.34,14.57 -6.82,10.83 -5.78,19.16 12.22,0.91 19.18,-1.09 26.14,-2.18 10.03,-1.58 15.65,-0.98 25.69,-0.49 17.55,-27.04 22.61,-4.67 52.61,-8.91 1.9,-38.99 12.45,-11.44 27.86,-35.25 8.62,2.38 6.13,1.97 10.04,7.37l7.96 -12.15c9.02,-12.12 2.74,-8.06 34.77,-10.73 2.51,-10.35 13.34,-26.18 21.29,-31.48 -8.19,7.77 1.33,13.78 8.26,17.91 17.15,10.23 7.22,-1.89 15.56,14.67 9.41,18.67 -4.06,3.67 32.78,8.28l13.07 2.51 2.67 85.87 41.69 7.44c0.26,-0.5 1.05,1.4 1.39,2.2l6.3 1.28c20.59,-30.72 5.98,-8.03 18.95,-18.82 3.71,-3.09 2.98,-0.25 5.42,-6.74 3.83,-10.2 3.29,-18.35 -7.98,-19.23 0.38,-0.6 0.96,-2.3 1.16,-1.78l6.76 -4.94c3.21,-1.08 13.55,-1.88 17.95,-3.07 9.09,-2.48 17.04,-7.95 20.76,-15.8 7.24,-15.32 -7.37,0.04 9.87,-19.48l8.74 -11.31c11.1,-15.13 6.26,-8.05 18.64,-17.5 2.69,-2.05 2.91,-2.32 5.23,-4.6 0.49,-0.48 1.11,-1.24 1.59,-1.74l25.83 -27.15c3.29,-2.59 3.26,-2.39 5.72,-4.47 3.17,-2.68 2.2,-2.23 4.9,-4.52l16.3 -12.69c4.12,-4.44 1.89,-2.11 4.3,-5.66l2.43 -4.06c0.24,-0.41 0.7,-1.4 1.11,-2.06 6.3,3.21 0.93,3.36 13.17,2.74 0.86,-12.04 -3.01,-10.96 -3.11,-11.09 -16.04,-22.2 3.87,14.88 -4.28,-5.37 8.59,-19.12 43.25,-15.58 42.24,-47.11l13.44 2.68c0.34,-0.25 1,-1.05 1.33,-1.37 0.36,-0.36 0.94,-1.22 1.3,-1.65l17.1 -17.84 3.99 -7.31c0.23,-0.21 0.97,-0.76 1.24,-0.95 0.71,-0.5 5.87,-2.72 9.86,-4.4 -0.74,-0.67 -1.83,-1.33 -2.41,-1.78l-4.5 -3.5c-8.21,-7.18 -6.92,-8.15 -11.7,-16.7 14.35,-7.24 14.97,-6.02 19.47,-17 26.46,0.09 18.07,2.85 26.37,-4.72 -1.14,-3.41 -1.93,-8.17 -2.37,-16.09 -32.02,5.69 -23.03,-6.48 -39.35,0.22 -13.87,5.69 -37.97,18.46 -50.96,30.13 -14.44,12.98 -12.97,3.1 -36.78,15.78l-28.91 13.83c-20.82,12.42 -163.62,70.41 -173.47,83.46 -8.44,11.16 7.82,3.09 -8.22,10.17 -8.56,3.78 -14.4,3.53 -22.97,6.95l-52.37 27.57c-7.83,3.98 -13.49,3.92 -21.44,8.48 -34.57,19.81 -24.2,7.9 -51.86,26.41l-47.74 25.3c-21.49,5.9 -20.09,1.95 -27.71,22.11 -26.42,0.64 -34.03,9.52 -46.41,-0.18zm266.79 383.76l-4.06 41.36c-16.54,0.85 -13.93,-10.43 -13.7,48.02l16.29 4.11c0,48.09 20.65,39.94 -92.07,39.94l0 45.98 -93.98 1.08 -44.04 2.34 0.02 -46.69 -43.98 0 -0.77 45.31 -44.73 0.07 0 43.41c-15.4,0 -34.83,1.11 -49.61,0.28l-14.73 -2.11c-24.01,-1.1 -17.78,5 -19.83,10.39 10.23,4.86 70.69,10.84 82.64,0.79l5.2 -6.31c0.94,-4 35.69,-3.39 44.32,-3.68 -0.02,13.91 1.28,18.15 -2.29,29.57 -22.77,1.36 -46.55,5.44 -70.85,5.84 -22.2,0.36 -46.12,-2.22 -67.69,1.45 3.87,11.17 27.56,6.74 38.9,6.98 16.49,0.34 32.85,0.42 49.34,0.51 8.27,-0.93 -6.81,-6.76 35.64,-0.85 25.34,3.53 17.64,-12.57 64.52,0.3 7.26,1.99 16.61,2.23 22.76,2.9l141 0.09c6.66,-0.81 5.23,-0.43 11.21,-2.26l8.63 -3.33c9.16,-1.67 16.99,4.16 20.85,5.35 3.39,1.05 3.02,3.41 19.59,0.81 6.61,-1.04 16.31,-3.38 21.08,-5.23l5.57 -11.62c0.27,-0.7 0.68,-1.59 0.91,-2.28 0.23,-0.67 0.6,-1.58 0.78,-2.25 0.85,-3.16 1.3,4.03 0.99,-6.6l-3.86 -46.63c0.85,-18.15 0.81,-9.9 11.4,-16.62 7.04,-156.95 -1.6,-321.05 2.27,-479.61l-9.01 1.51c-2.91,9.42 -5.13,13.09 -14.33,16.24 3.7,5.07 2.43,2.81 4.68,11.41 3.41,13.05 -0.9,56.54 1.43,79.42 2.51,24.74 -3.28,24.91 -3.16,45.57 0.09,15.31 1.62,31.02 1.65,46.41l-11.19 5.39c-0.84,0.31 -5.26,0.95 -6.33,1.19l-1.48 92.06zm-266.79 -383.76c12.37,9.7 19.99,0.82 46.41,0.18 7.61,-20.16 6.22,-16.21 27.71,-22.11l47.74 -25.3c27.66,-18.52 17.28,-6.6 51.86,-26.41 7.95,-4.56 13.61,-4.49 21.44,-8.48l52.37 -27.57c8.57,-3.42 14.41,-3.17 22.97,-6.95 16.04,-7.08 -0.22,0.99 8.22,-10.17 9.85,-13.04 152.65,-71.04 173.47,-83.46l28.91 -13.83c23.81,-12.68 22.34,-2.81 36.78,-15.78 12.99,-11.67 37.09,-24.44 50.96,-30.13 16.32,-6.69 7.33,5.47 39.35,-0.22 0.44,7.93 1.23,12.68 2.37,16.09l10.64 0c0.67,13.11 -0.73,15.97 5.41,25.61 0.23,0.37 0.83,1.17 1.07,1.5l10.64 11.28 7.97 -7.39 28.7 50.47c9.54,18.77 12.81,0.36 13.96,25.49 9.98,-0.8 6.44,-1.35 15.3,-5.11l6.64 23.13c3.49,5.72 5.97,10.78 9.82,16.37 16.71,24.23 17.24,-0.71 18.47,38.42 -33.38,2.01 -15.22,4.81 -33.26,-14.16l-22.26 -14.18c-0.52,-0 -1.85,0.41 -2.3,0.46l-5.21 2.06c0.33,-1.04 2.57,-8.02 2.67,-9.06l-21.9 -51.44c-14.82,-12.38 -13.47,-1.72 -19.45,-18.61 -1.63,-4.59 -0.79,-6.03 -2.43,-10.49 -10.19,1.93 -5.39,2.78 -15.44,9.29 -9.2,-25.42 -14.78,3 -7.59,-7.87 -19.5,0 -6.4,-1.83 -10.87,7.18 30.61,44.81 257.94,329.91 277.31,341l68.31 -22.65c-3.85,-23.59 -270.88,-344.6 -333,-429.31 -2.88,-3.93 -2.34,-3.41 -5.03,-6.16 -22.81,3.56 -60.88,25.09 -81.28,35.26l-527.43 263.05zm-2.94 1.35c-7.47,0.01 -5.73,1.87 -5.24,-5.58 -8.59,5.8 -10.12,9.19 -14.32,8.37 -8.07,-1.58 -0.67,-2.71 -0.71,-3.04l-8.99 1.23 11.63 15.83c-14.37,-10.88 -15.98,-5.94 -38.24,-5.94 0,31.7 -2.13,61.37 4.16,92.22 24.91,-0.89 12.95,1.73 27.09,7.88l10.69 2.82c21.29,6.67 3.83,7.26 30.34,6.67 25.74,-0.57 21.48,3.44 23.71,10.74 -36.94,11.37 -46.69,-16.56 -46.69,17.76l23.02 0 2.05 17.96 65.69 -1.81 3.7 -13.06 21.82 -2 0 -88.98c34.68,0 114.49,3.46 143.5,-3.27 5.63,7.95 5.07,11.09 5.07,23.3 3.73,-8.56 2.69,-5.74 2.69,-17.65l5.41 0c0,28.7 -0.22,8.25 6.56,16.44 10.9,0 19.76,-1.56 25.5,4.83l9.01 -1.51c0.61,-19.32 2.9,5.67 8.56,-18.99 -0.34,-0.8 -1.13,-2.7 -1.39,-2.2l-41.69 -7.44 -2.67 -85.87 -13.07 -2.51c-36.84,-4.61 -23.37,10.4 -32.78,-8.28 -8.35,-16.56 1.59,-4.44 -15.56,-14.67 -6.93,-4.14 -16.45,-10.15 -8.26,-17.91 -7.95,5.3 -18.78,21.13 -21.29,31.48 -32.03,2.68 -25.75,-1.39 -34.77,10.73l-7.96 12.15c-3.91,-5.4 -1.41,-4.99 -10.04,-7.37 -15.41,23.81 -25.96,-3.74 -27.86,35.25 -30,4.25 -35.06,-18.12 -52.61,8.91 -10.04,-0.49 -15.67,-1.09 -25.69,0.49 -6.96,1.09 -13.92,3.09 -26.14,2.18 -1.04,-8.32 -1.56,-4.58 5.78,-19.16zm316.02 64.21c-5.66,24.67 -7.95,-0.33 -8.56,18.99 -3.87,158.57 4.77,322.67 -2.27,479.61 -10.59,6.72 -10.55,-1.53 -11.4,16.62l3.86 46.63c0.31,10.63 -0.13,3.44 -0.99,6.6 -0.18,0.67 -0.55,1.58 -0.78,2.25 -0.23,0.69 -0.64,1.58 -0.91,2.28l-5.57 11.62c-4.78,1.85 -14.47,4.19 -21.08,5.23 -16.57,2.61 -16.2,0.24 -19.59,-0.81 -3.86,-1.19 -11.69,-7.01 -20.85,-5.35l-8.63 3.33c-5.98,1.84 -4.55,1.45 -11.21,2.26l-141 -0.09c-6.14,-0.67 -15.5,-0.91 -22.76,-2.9 -46.88,-12.86 -39.19,3.23 -64.52,-0.3 -42.44,-5.91 -27.37,-0.08 -35.64,0.85 -16.49,-0.09 -32.85,-0.17 -49.34,-0.51 -11.34,-0.24 -35.04,4.2 -38.9,-6.98 -15.13,3.93 -30.94,4.33 -42.99,-5.4 -19.94,-16.11 7.59,-4.03 -26.94,-21.7 0.48,-13.56 0.35,-7.14 3.63,-17.02 -15.24,-8.4 -8.99,0.08 -31.79,-16.88l21.09 29.94c0.43,0.58 0.96,1.41 1.41,1.98 26.21,33.58 39.06,31.99 50.76,37.97 9.3,4.76 6.81,11.42 7.37,9.85 0.19,-0.55 0.46,1.91 0.45,3.16l-16.84 -0.87c3.58,2.47 1.14,1.54 7.54,3.19 11.49,2.96 39.02,1.13 54.54,1.89l448.98 3.6c2.38,-187.57 -2.31,-376.38 0.4,-564.01 0.44,-30.52 8.35,-30.43 23.31,-47.49l97.75 -109.42c20.62,-23.33 125.11,-133.28 132.44,-148.37 -0.72,-0.1 -9.44,-0.75 -10.35,-0.91 -8.37,-1.41 7.71,7.02 -5.47,-2.23l-17.1 17.84c-0.35,0.42 -0.94,1.29 -1.3,1.65 -0.32,0.33 -0.99,1.13 -1.33,1.37l-13.44 -2.68c1.01,31.54 -33.64,27.99 -42.24,47.11 8.15,20.25 -11.76,-16.83 4.28,5.37 0.09,0.13 3.97,-0.95 3.11,11.09 -12.24,0.61 -6.87,0.47 -13.17,-2.74 -0.41,0.66 -0.87,1.65 -1.11,2.06l-2.43 4.06c-2.41,3.55 -0.18,1.21 -4.3,5.66l-16.3 12.69c-2.7,2.28 -1.73,1.84 -4.9,4.52 -2.46,2.08 -2.43,1.88 -5.72,4.47l-25.83 27.15c-0.48,0.5 -1.1,1.25 -1.59,1.74 -2.31,2.28 -2.54,2.55 -5.23,4.6 -12.38,9.45 -7.54,2.37 -18.64,17.5l-8.74 11.31c-17.24,19.52 -2.63,4.16 -9.87,19.48 -3.72,7.85 -11.67,13.33 -20.76,15.8 -4.4,1.2 -14.74,2 -17.95,3.07l-6.76 4.94c-0.2,-0.52 -0.78,1.18 -1.16,1.78 11.27,0.88 11.81,9.02 7.98,19.23 -2.44,6.49 -1.7,3.66 -5.42,6.74 -12.97,10.79 1.64,-11.9 -18.95,18.82l-6.3 -1.28zm-736.9 -185.89l3.95 -14.79 44.06 -1.31c-3.22,23.94 -5.01,6.23 -3.18,36.71l0.56 32.98 26.94 0 0 -32.88 16.48 -0 0 23.02c17.74,0 13.72,-2.62 25.41,4.68 9.26,5.79 8.48,5.19 20.61,5.19 3.46,16.66 4.67,13.15 23.04,13.15l-0 23.02 23.02 0c0,2.41 -0.21,8.15 0.34,10.28 2.63,10.13 1.2,6.68 6.22,12.74l16.44 0c5.16,-6.23 2.16,-0.57 5.25,-9.63 2.68,-7.83 0.37,0.52 1.54,-6.63 0.14,-0.85 -0.24,-11.48 -0.24,-13.33l39.49 -0 0.01 52.61 39.42 0 0.02 -23.02 82.19 0c0,-13.76 2.67,-33.23 -2.72,-44.15l-8.78 -15.54c-0.47,-0.96 -3.2,-6.23 -3.77,-6.98 -15.61,-20.82 1.04,13.08 -44.13,-21.59l-35.38 -10.3c-13.74,-2.12 -4.85,-10.25 -53.36,-19.09 -29.52,-5.38 -5.62,-6.18 -25.87,-9.1 -17.53,-2.53 -47.17,10.45 -53.97,-8.05 6.95,-0.27 8.51,-1.37 14.2,-1.75 12.25,-0.8 3.58,3.88 19.78,-1.56 -6.69,-10.2 5.35,-3.29 -7.61,-4.69l-6.52 1.87c-0.35,-0.77 -1.45,1 -1.85,0.91l-7.04 -11.21c-46.68,10.65 -63.19,-15.79 -98.87,-5.83 -11.11,3.1 -3.15,-2.97 -9.61,5.83 4.43,-3.33 2.74,1.36 2.57,-7.34 -0.4,-20.91 -48.62,-11.34 -51.91,-9.1 -0.11,-15.91 2.61,-16.22 -10.46,-21l-22.43 -5.3c0.2,0.37 1.11,0.35 1.23,0.31 0.11,-0.04 1.09,0.04 1.2,-0.05l1.94 -1.99c3.78,-15.89 -0.97,-11.25 -7.66,-14.71 -12.09,5.55 -4.13,-1.72 -8.94,9.65 -4.51,10.67 4.14,26.88 -4.2,33.1 0.96,0.95 2.17,1.74 3.26,2.44 1.04,0.67 1.93,1.51 3.17,2.25 0.39,0.23 5.29,2.9 5.89,3.19 0.98,0.47 6.39,1.55 7.41,1.95l0 23.02c10.74,-1.89 12.86,-4.04 23.02,0 0,16.82 -5.52,23.76 9.85,22.04zm503.09 684.59l93.98 -1.08 0 -45.98c112.72,0 92.07,8.14 92.07,-39.94l-16.29 -4.11c-0.22,-58.45 -2.84,-47.18 13.7,-48.02l4.06 -41.36 -36.22 0 0 -92.06c-25.61,-0.16 -8.39,-2.72 -12.5,-12.02 -4.66,-10.56 -2.97,-6.84 -13.81,-11.01 0,-13.13 2.18,-15.07 -3.19,-23.68 -0.35,-0.56 -1.12,-1.14 -1.49,-1.72 -5.79,-9.27 -5.19,-8.48 -5.19,-20.63l-16.48 -0.01 0.02 32.89 -46.05 0 -0 23.05c44.11,0 19.53,-2.69 51.45,5.61 11.17,2.91 25.67,-3.45 16,17.06 -3.14,6.67 1.94,6.89 -21.42,6.89l0 29.6 -23.02 0 -0 69.05 -23.01 0 0 69.06 -46.04 0 0 39.49c2.41,0 8.15,-0.21 10.27,0.34 10.13,2.63 6.68,1.2 12.74,6.22l0 16.44 -16.26 6.8c-0.85,0.14 -11.48,-0.24 -13.33,-0.24l-0 19.37zm-1061.26 -779.3c47.42,-0.57 24.03,14.56 49.81,5.31 13.22,-4.74 -1.99,-6.56 21.38,-6.34 9.07,0.09 19.44,1.92 30.45,1.92l0 -46.04 46.04 0c-0.01,-16.65 -2.69,-46.49 2.19,-59.17 -9.43,-14.07 0.75,-10.54 -20.71,-11.91l-5.05 -16.37c-39.39,4.78 -50.53,-10.71 -56.33,-12.54 -8.48,-2.67 -29.71,1.39 -57.53,-11.19l-4.2 -2.15c-24.42,-13.05 -12.01,-11.89 -43.05,-11.89 -3.45,9.44 -1.96,15.47 -6.41,23.09 -4.54,0 -12.93,-0.81 -16.48,-0.67 -20.57,0.8 -18.25,4.38 -22.76,9.79 9.48,3.5 9.27,2.09 19.73,3.69 0,13.46 -2.04,33.41 2.18,45.41 4.78,13.6 30.52,20.85 19.74,39.94l-5.76 6.6c-0.62,0.67 -1.75,1.5 -2.48,2.39 14.38,7.22 2.08,9.07 19.11,17.81 8.08,4.15 1.93,-3.09 8.57,3.78 13.66,14.13 -6.5,-2.21 2.62,14.19 4.89,8.8 11.52,6.7 18.93,4.36zm404.58 91.2c1.7,6.67 -1.13,5.54 3.98,5.76l7.95 -29.19c-2.28,-33.02 -4.51,-242.39 3.56,-260.83 9.12,6.47 2.07,-0.73 4.32,8.01 34.54,16.18 55.06,20.25 83.08,45.22 20.06,17.88 13.36,8.81 35.37,21.8 2.93,16 0.47,41.9 -0.59,59.26 -3.18,52.01 1.61,27.2 2.41,52.1 5.74,9.56 39.61,14.3 56.83,19.9 22.11,7.19 30.65,13.39 58.05,19.61 27.57,6.26 39.79,9.2 63.04,16.99 20.55,6.88 37.4,13.16 59.68,18.72 6.26,1.57 8.68,1.7 15,5.34 2.84,1.64 9.87,7.87 10.1,7.98 5.89,3.09 12.39,-1.43 25.57,9.07l26.19 11.75c14.8,3.59 19.98,5.41 31.76,8.66 20.83,5.76 38.82,12.23 59.06,19.85 5.62,2.12 26.94,7.26 30.52,9.22 14.8,8.1 -10.08,1.71 26.39,13.46 0.67,0.22 1.86,0.5 2.67,1 -1.72,11.63 -9.35,17.85 -15.41,24.89 -8.21,9.55 -13.81,14.96 -21.1,21.04l1.53 11.13c16.33,-13.91 56.08,-45.82 59.15,-68.04 -35.02,-4.39 -88.89,-26.8 -122.66,-39.12 -46.07,-16.81 -350.19,-114.66 -361.19,-122.08l-0.53 -114.72c-41.53,-17.51 -131.78,-84.57 -150.72,-89.95 1.88,45.77 -4.11,294.32 6.01,313.16zm-206.5 165.66c4.87,13.09 24.17,24.59 34.35,42.71 7.69,2.06 150.15,150.65 177.37,181.34 6.88,7.75 5.86,4.8 8.48,12.96 19.89,10.39 171.71,175.28 190.92,195.3l177.53 184.46c10.82,9.81 3.54,6.27 14.35,7.38l16.84 0.87c0.02,-1.25 -0.26,-3.7 -0.45,-3.16 -0.56,1.57 1.93,-5.09 -7.37,-9.85 -11.7,-5.98 -24.55,-4.39 -50.76,-37.97 -0.45,-0.58 -0.99,-1.41 -1.41,-1.98l-21.09 -29.94c-2.93,-2.28 -99.35,-108.87 -126.63,-130.47l-130.24 -139.44c-11.83,-13.31 -17.74,-14.07 -35.3,-36.99 -2.27,-2.96 -1.69,-2.66 -4.24,-5.54l-30.56 -32.13c-13.61,-13.86 -35.63,-30.18 -49.14,-47.12 -0.73,-0.64 -1.65,-1.48 -2.14,-1.98l-3.95 -3.92c-2.94,-3.26 -1.5,-1.88 -4.58,-5.83l-49.17 -48.7c-11.93,-10.87 -24.57,-14.96 -40.71,-38.49l-60.44 -60.21c-4.14,5.51 -9.37,-10.22 -1.67,8.72zm1352.13 -239.6c13.18,9.25 -2.9,0.82 5.47,2.23 0.91,0.16 9.64,0.81 10.35,0.91 12.86,2.76 8.97,5.19 17.06,13.45 4.47,-9 -8.63,-7.18 10.87,-7.18 -7.19,10.87 -1.61,-17.55 7.59,7.87 10.06,-6.52 5.25,-7.37 15.44,-9.29 1.64,4.46 0.8,5.9 2.43,10.49 5.98,16.89 4.63,6.23 19.45,18.61l21.9 51.44c-0.1,1.04 -2.33,8.01 -2.67,9.06l5.21 -2.06c0.45,-0.05 1.78,-0.46 2.3,-0.46l22.26 14.18c18.04,18.97 -0.11,16.17 33.26,14.16 -1.23,-39.13 -1.76,-14.19 -18.47,-38.42 -3.85,-5.59 -6.33,-10.65 -9.82,-16.37l-6.64 -23.13c-8.85,3.75 -5.32,4.31 -15.3,5.11 -1.15,-25.13 -4.43,-6.72 -13.96,-25.49l-28.7 -50.47 -7.97 7.39 -10.64 -11.28c-0.23,-0.32 -0.83,-1.13 -1.07,-1.5 -6.14,-9.64 -4.74,-12.5 -5.41,-25.61l-10.64 0c-8.3,7.57 0.09,4.81 -26.37,4.72 -4.5,10.98 -5.12,9.76 -19.47,17 4.78,8.55 3.48,9.52 11.7,16.7l4.5 3.5c0.58,0.45 1.67,1.11 2.41,1.78 -3.99,1.68 -9.15,3.9 -9.86,4.4 -0.27,0.19 -1,0.74 -1.24,0.95l-3.99 7.31zm-1098.49 -86.99c14.71,-7.55 -1.87,4.24 4.63,-4.72l4.74 -8.3c3.58,-8.74 2.76,-8.08 1.99,-18.84 -30.54,-4.99 -23.77,-9.13 -24.98,-16.43 5.56,-5.13 -7.48,-5.53 15.14,-6.72 21.2,-1.11 12.15,1.76 16.13,6.74 1.56,-12.37 0.05,-5.45 9.88,-9.76 13.68,5.37 0.53,-0.28 8.36,3.02 0.91,0.39 4.11,1.78 5.09,2.26 10.19,4.93 12.02,8.57 22.7,11.06l-1.56 47.61c-3.14,13.82 -5.42,37.8 8.36,45.8 10.99,6.37 -12.09,2.14 9.66,-2.04 0.39,0.61 2.91,5.59 3.85,6.61 5.58,6.02 0.06,2.82 8.94,6.78 -0.81,-24.91 -5.59,-0.09 -2.41,-52.1 1.06,-17.36 3.52,-43.26 0.59,-59.26 -22.01,-12.98 -15.31,-3.92 -35.37,-21.8 -28.02,-24.97 -48.54,-29.04 -83.08,-45.22 -1.65,13.85 0.07,42.23 2.22,57.15 3.35,23.32 -1.81,39.24 3.32,60.68l21.8 -2.52zm0 0c0.15,4.7 -0.13,9.37 0.74,14.02 2.11,11.26 -5.63,-3.66 3.76,10.61 7.07,-0.72 12.21,0.52 14.73,-18.72l42.89 0 1.56 -47.61c-10.69,-2.48 -12.52,-6.12 -22.7,-11.06 -0.98,-0.47 -4.18,-1.87 -5.09,-2.26 -7.83,-3.3 5.32,2.35 -8.36,-3.02 -9.83,4.3 -8.33,-2.62 -9.88,9.76 -3.98,-4.97 5.07,-7.85 -16.13,-6.74 -22.61,1.19 -9.58,1.59 -15.14,6.72 1.21,7.3 -5.56,11.43 24.98,16.43 0.78,10.76 1.59,10.11 -1.99,18.84l-4.74 8.3c-6.5,8.96 10.09,-2.83 -4.63,4.72z"/>
   <path class="fil2" d="M1507.14 3697.82l51.13 131.57 86.5 233.91c7.47,15.06 -0.9,5.6 10.32,11.05 7.42,-3.97 2.63,0.13 7.7,-7l24.15 -64.71c8.49,-24.12 16.98,-47.5 26.54,-72.22 17.8,-46 34.21,-102.89 54.02,-146.15 16.51,29.61 80.13,213.4 103.88,275.64 6.22,16.3 -0.24,8.16 10.61,14.37 13.04,-4.86 2.68,6.34 11.04,-10.59 0.7,-1.41 3.09,-9.43 4.11,-12.37 2.68,-7.75 6.21,-16.68 9.73,-26.27l51.93 -142.15c4.4,-9.36 1.23,-4.55 6.71,-10.37l-1.46 -0.43 86.69 -239.56c8.25,12.7 10.42,7.71 28.64,3.19 41.83,-10.4 80.42,-23.12 117.66,-10.23 12.52,60.71 -8.68,376.14 3.04,438.25l66.5 0.28c5.43,-29.13 2.16,-331.93 1.51,-412.4 -0.18,-22.24 -1.08,-20.28 3.65,-24.91 24.8,-20.19 110.48,8.23 139.67,14.16 6.63,-10.44 6.56,-34.81 4.75,-49.61l-384.71 -0.55 -129.12 380.77c-10.56,-7.43 -28.59,-74.99 -34.15,-91.93 -11.05,-33.69 -20.58,-63.71 -31.46,-97.13 -9,-27.64 -56.07,-178.61 -64.09,-191.54l-73.59 -0.06c-0.1,11.96 26.02,77.25 32.3,93.04 21,52.73 24.09,42.21 6.79,97.29 -8.11,25.83 -58.15,181.45 -66.58,192.15l-125 -381.66 -76.62 -0.74 37.22 106.9zm1121.41 -83c48.3,-17.45 119.61,27.57 136,48.76 83.1,107.45 58.07,357.35 -86.31,382.88 -119.98,21.21 -176.87,-80.58 -183.26,-187.45 -7.33,-122.63 43.24,-211.56 133.56,-244.2zm-201.72 139.32c1.91,31.26 -21.38,90.76 2.18,169.35 10.93,36.44 27.78,66.27 53.57,91.19 4.63,4.48 7.58,6.59 12.46,10.81 1.45,1.26 6.11,5.51 6.58,6 3.77,3.89 2.17,2.01 3.63,4.52 49.47,19.83 69.22,43.14 153.83,34.75 58.21,-5.77 103.48,-27.75 140.53,-53.74 149.98,-105.22 120,-462.78 -155.61,-432.84 -98.38,10.68 -175.7,61.27 -208.25,151.22l-4.69 12.04c-0.37,0.72 -0.94,1.63 -1.3,2.27l-2.93 4.44zm682.94 93.86c10.35,3.69 19.08,18.15 25.73,26.75l140.24 175.44c8.81,10.96 12.07,22.1 29.05,21.02l0.78 -480 -30.41 -0.17 -1.04 342.14c-14.63,-8.1 -87.71,-105.32 -103.78,-126.17 -31.13,-40.4 -155.54,-191.37 -169.06,-215.6l-55.51 -0.43 0.04 472.7 31.14 0.04 0.31 -382.94c10.4,5.69 57.5,68.13 67.52,80.81 12.04,15.22 20.81,26.13 33.61,41.97 9.53,11.8 28.51,30.95 31.37,44.45zm-2328.38 -218.2l-29.83 -37.83 -54.09 -0.93 -0.14 472.29 31 0.54 0.3 -382.5c10.42,4.57 55.54,64.69 66.07,77.75 9.04,11.22 59.05,71.69 65.1,84.93 2.43,1.32 0.86,-0.05 4.72,3.51l138.8 173.2c20.84,25.86 31.26,46.93 52.37,52.89l-0.7 -482.83 -29.83 0.79 -0.11 341.51c-12.29,-7.14 -53.56,-62.58 -64.59,-76.62l-179.07 -226.7zm479.09 -8.76c21.13,-8.42 123.33,5.48 144.72,13.36l28.93 3.81c2.54,-14.62 7.62,-33.75 4.65,-47.08l-281.24 -0.19c-7.65,17.4 -4.75,421.36 -2.79,472.39l283.65 0.45 6.89 -46.97 -221.22 21.33 -0.09 -207.79 158.23 -0.2 0.32 -27.5 -157.41 -0.36 -1.25 -173.41 36.61 -7.85z"/>
   <path class="fil3" d="M4481.43 3919.83c4.74,36.57 -5.61,102.13 -5.73,144.18l31.1 -1.64 19.86 -386.91c9.1,5.52 79.9,170.55 90.68,193.87 8.51,18.41 77.85,185.74 92.57,194.55 10.63,-4.56 3.58,2.32 10.63,-10.31l173.52 -392.22c5.65,6.41 5.42,14.09 5.84,23.63l17.72 378.57 72.55 0.14c-0.22,-78.24 -24.83,-340.17 -18.93,-384.32 -19.49,-27.39 15.98,-85.69 -21.17,-88.61l-57.65 0.43c-22.05,33.99 -141.42,336.93 -159.5,356.27l-164.85 -356.87c-79.22,0.3 -66.65,-5.87 -68.22,31.52 -1.44,34.27 -4.26,67.57 -5.8,101.9 -1.18,26.36 -6.05,186.25 -12.63,195.81zm-317.46 -305.32c49.05,-17.26 119.32,28.31 135.96,49.43 29.35,37.24 43.24,82.92 46.38,142.41 5.92,112.11 -39.18,225.3 -134.83,240.51 -122.88,19.55 -174.36,-83.81 -181.52,-191.83 -7.88,-118.86 46.61,-209.77 134.01,-240.51zm256.21 246.71c8.04,-103.33 -7.97,-192 -93.84,-246.73 -36.57,-23.31 -69.31,-24.86 -80.88,-32.43 -32.67,8.56 -71.24,-11.66 -157.34,26.72 -40.58,18.09 -78.67,51.58 -98.31,85.88 -45.83,80.03 -49.57,217.59 2.51,289.93 49.6,68.89 143.82,113.41 262.69,73.61 47.23,-15.81 88.86,-41.93 112.17,-71.76 48.41,-62 37.46,-86 53.01,-125.21zm-809.69 203.87l-0.15 -234.85 216.34 1.43 0.41 232.16 68.25 -0.47 -0.02 -472.2 -68.59 -0.06 -0.26 211.17 -216.76 -0.76 -0.05 -210.51 -68.87 -0.05 0.38 472.73 69.31 1.41zm1545.02 -434.9c66.68,-29.82 140.73,2.26 208.91,7.77 3.43,-13.2 8,-32.71 5.33,-47.1l-283.94 0.44 1.31 472.85 282.31 -0.33 6.08 -47.63c-42.19,3.35 -190.98,24.72 -220.41,19.86l0.74 -205.68 157.43 -0.01 -0.2 -28 -157.91 -0.96 0.35 -171.21zm287.39 417.67c13.62,0.01 38,10.43 53.89,14.07 53.13,12.18 126.42,16.24 173.5,-5.41 31.07,-14.28 54.96,-36.85 67.63,-67.08 24.26,-57.85 -4.72,-94.59 -7.07,-111 -11.56,-7.3 -18.95,-22.91 -48.2,-45.17 -58.42,-44.44 -204.23,-95.02 -169.71,-187.44 19.35,-51.82 81.15,-32.44 133.86,-16.33 12.68,3.88 53.01,21.03 64.48,20.83l5.07 -44.57c-19.92,-12.18 -71.34,-16.59 -87.75,-21.51l-5.75 -2.85c-50.12,7.54 -77.99,-4.83 -121.6,23.12 -25.32,16.22 -53.27,45.85 -55.58,86.61 -7.26,127.76 158.55,143.3 210.73,214.46 22.25,30.33 22.76,76.43 -1.24,106.13 -61.74,76.42 -181.82,9.72 -213.29,1.45l1.02 34.68z"/>
   <path class="fil4" d="M2607.17 2892.39c-3.31,14.54 -0.25,16.1 -0.25,16.11 12.13,-4.73 0.5,0.59 7.12,-4.72 5.35,-4.28 2.54,-2.63 7.8,-6.96l3.71 8.98c10.39,-12.27 -2.21,1.38 11.96,-8.39 17.69,-12.19 20.69,-25.37 30.38,-21.2 1.9,-22.94 -9.54,-3.23 31.46,-38.23 16.44,-14.03 15.76,-7.85 14.99,-27.94l6.72 2.34c15.28,2.18 6.17,-0.03 15.7,-5.27 14.65,-8.05 4.11,-1.41 3.75,-0.38l0.73 -19.7c13.01,-4.42 9.13,-2.19 15.79,-9.5 15.37,-16.86 11.8,-5.65 19.78,-22.98 1.43,0.46 3.76,-0.56 4.32,1.31 0.45,1.52 2.94,0.93 3.42,1.31 7.4,6.06 2.77,-0.87 1.72,3.95 0.52,-24.69 -0.15,-10.47 7.45,-19.44 22.01,-26 -3.67,-1.72 32.6,-39.74l3.16 -3.17c8.53,-10.35 0.08,-6.79 11.77,-18.03 12.31,-11.85 3.09,3.98 13.54,-15.31 7.04,-13 15.84,-19.3 33.83,-22.68 2.3,-12.03 0.21,-13.4 8.52,-20.85 17.47,-15.67 0.53,-0.99 14.5,-2.17 5.27,-20.76 16.77,-14.35 24.51,-24.39 3.48,-4.52 0.26,-7.43 10.25,-16.15l11.83 -13.59c19.2,-38.52 -4.74,0.34 31.07,-36.01 4.87,-4.95 0.5,-2.72 7.77,-5.77 2.2,-0.92 7.96,-1.61 10.61,-2.05 1.79,-21.44 -0.62,-10.69 11.32,-19.03 11.3,-7.89 -0.35,-8.11 20.74,-7.69 0.52,-15.95 4.85,-15.31 11.63,-27.47 0.24,-0.43 0.62,-1.34 0.84,-1.75l3.17 -6.25c8.25,-8.54 -9.88,5.65 3.08,-2.37 8.06,-4.98 10.03,-1.97 26.41,-18.91 0.45,-0.47 1.13,-1.17 1.56,-1.67l18.26 -21.95c15.92,-16.02 -6.54,-4.13 11.45,-21.49 13.28,-12.81 4.48,2.45 33.29,-22.31l12.19 -13.93c6.87,-8.08 6.91,-6.63 11.64,-15.07 1.62,-2.89 3.4,-6.13 3.69,-6.7 0.13,-0.24 0.58,-0.99 0.69,-1.23 0.1,-0.22 0.44,-0.98 0.52,-1.19 0.08,-0.22 0.3,-1.04 0.37,-1.26 0.08,-0.24 0.21,-1.16 0.28,-1.4 0.08,-0.26 0.22,-1.23 0.31,-1.49 2.48,-6.92 11.23,-10.35 21.18,-18.32 10.91,-8.75 9.26,-11.13 9.21,-17.08l13 -1.49c5,-3.96 0.39,-3.31 8.37,-5.29 13.26,-3.28 4.57,-1.8 12.46,0.77l1.71 -10.59c0.08,-0.04 0.86,0.56 0.92,0.22 0.06,-0.32 0.95,0.22 0.8,0.48l-0.44 -22.35c2.85,-5.89 -1.76,1.59 2.56,-2.53 9.07,-8.67 5.73,-10.49 12.14,-11.63 10.29,-1.81 -2.92,5.06 2.85,0.33 -5.14,-13.44 1.37,-15.48 2.48,-16.62 8.13,8.48 5.03,3.28 13.91,8.96 10.61,6.79 3.28,12.22 20.15,20.59 5.81,2.88 5.05,1.42 8.7,0.21 0.24,0.6 0.07,1.61 0.1,1.94 0.03,0.34 0.08,1.54 0.13,1.96 0.04,0.43 0.08,1.52 0.16,2l0.62 4.08c7.43,21 19.59,-7.1 12.51,25.09l14.93 -4.11c0.43,0.31 1.19,1.73 1.48,2.27 4.5,8.37 3.81,12.2 3.38,21.23 -1.39,29.06 2.98,32.83 -3.35,27.78 5.59,11.33 -0.56,0.25 -0.85,0.27 -15.12,1.18 -11.17,0.96 -15.95,6.31 6.24,9.82 -8.47,12.92 8.62,6.96 -12.43,6.62 -25.04,8.02 -36.17,16.04 0.66,0.48 1.8,0.38 2.06,1.35 0.24,0.89 1.6,1.06 1.92,1.22l-17.54 8.95 4.59 5.86c0.78,2.19 2.03,-1.07 -0.49,3.59 -5.13,-1.91 -9.92,0.59 -14.09,3.46 -2.46,1.69 -9.7,8.46 -11.94,11l-10.06 14.21c-3.58,5.51 -6.35,8.93 -11.6,12.3l-16.78 14.56c-7.21,11.88 -9.51,28.59 -20.87,33.4 -5.89,2.5 -8.92,1.37 -11.82,7.96l-14.68 27.04c-0.46,-0.88 -1.62,-2.32 -2.43,-3.48l-8.55 12.07c-13.62,17.65 -22.77,1.62 -27.61,27.39 -0.44,-1.37 13.49,-3.61 -4.15,-1.26 -17.55,2.34 -21.97,18.31 -33.06,29.9l-50.02 48.56c-8.9,6.98 -6.79,2.72 -14.09,12.04 -8.12,10.38 -16.31,12.31 -23.75,25.65l-15.06 17.85c-0.44,0.54 -0.95,1.37 -1.36,1.95l-10.62 12.9c-6.56,4.98 -2.88,0.67 -6.52,5.21 -8.3,10.37 -22.59,20.2 -26.27,35.25 -3.96,16.21 -1.83,4.34 0.75,9.23l-30.24 22.11c-6.34,5.49 -26.89,17.13 -26.68,27.82 0.09,4.76 1.48,4.21 4.15,5.01 -6.83,-0.93 -3.24,-1.72 -9.57,0.58 -6.62,2.41 -6.21,10.26 -25.04,24.28 -13.02,9.7 -9.38,12.22 -17.17,19.95l-14.43 11.63c-0.47,0.56 -1.01,1.36 -1.45,1.96 -15.54,21.16 -7.2,8.24 -19.65,19.3 -11.56,10.25 -24.19,17.28 -31.23,31.4l-19.4 28.23c-12.1,18.14 8.43,-14.92 -2.42,4.6 -0.22,0.39 -0.63,1.29 -0.87,1.7l-3.48 5.46c-8.35,11.77 -12.71,11.09 -17.63,18.88l-3.97 9.24c-3.37,5.99 -7.57,6.8 -15.94,8.87 1.3,7.82 7.06,14.8 0.55,21.67 -6.83,7.21 -8.41,-1.11 -9.6,-2.06l-6.44 -6.06c-1.89,9.15 -7.56,11.86 -10.27,27.13 -16.12,-0.09 -15.74,2.11 -24.29,15.2 -7.44,11.41 -7.03,13.99 9.32,17.32l9.9 -7.72c4.59,-4.56 6.73,-7.33 11.17,-12 6.76,-7.11 14.87,-14.94 22.52,-23.46 14.54,-16.2 26.5,-28.44 44.58,-47.53l264.44 -281.43c55.96,-61.56 121.78,-126.25 175.27,-186.5 32.39,-36.46 58.89,-58.57 87.48,-93.33 17.85,-21.7 81.81,-79.07 88.45,-96.31 -12.39,-17.84 -36.83,-35.91 -53.19,-52.63 -18.29,-18.67 -32.58,-37.05 -52.66,-55.58 -12.72,6.98 -144.45,146.67 -167.47,170.93 -25.83,27.22 -52.65,53.53 -82.48,85.2l-250.96 258.74c-27.62,29.18 -55.2,58.6 -83.33,87.67 -7.03,7.26 -76.98,75.41 -81.52,87.87zm615.32 -600.69c8.56,18.54 -2.67,-2.12 -5.16,17.94 -0.75,5.99 11.18,-4.9 -3.53,7.19 -12.78,10.5 -5.59,-8 -14.33,26.95l-5.44 15.71c62.36,0 2.65,9.87 52.59,9.87 0.15,23.21 -2.07,7.44 7.46,13.06 6.57,3.88 7.37,4.31 14.09,-1.81 12.78,-11.66 4.61,-20.36 24.51,-21.09l-19.75 -9.87c41.71,0 25.54,-4.99 35.53,-11.18 7.93,-4.91 10.34,-3.18 17.07,1.31l-3.26 3.31c4.79,-5.34 0.83,-5.13 15.95,-6.31 0.3,-0.02 6.44,11.06 0.85,-0.27 6.34,5.06 1.96,1.28 3.35,-27.78 0.43,-9.03 1.12,-12.86 -3.38,-21.23 -0.29,-0.54 -1.06,-1.96 -1.48,-2.27l-14.93 4.11c7.08,-32.19 -5.08,-4.09 -12.51,-25.09l-0.62 -4.08c-0.07,-0.47 -0.11,-1.57 -0.16,-2 -0.04,-0.42 -0.09,-1.63 -0.13,-1.96 -0.03,-0.33 0.15,-1.34 -0.1,-1.94 -3.66,1.21 -2.9,2.67 -8.7,-0.21 -16.87,-8.36 -9.54,-13.8 -20.15,-20.59 -8.87,-5.69 -5.78,-0.48 -13.91,-8.96 -1.11,1.14 -7.62,3.18 -2.48,16.62 -5.76,4.72 7.44,-2.15 -2.85,-0.33 -6.41,1.13 -3.06,2.96 -12.14,11.63 -4.32,4.12 0.3,-3.36 -2.56,2.53l0.44 22.35c0.15,-0.27 -0.74,-0.81 -0.8,-0.48 -0.06,0.33 -0.84,-0.26 -0.92,-0.22l-1.71 10.59c-7.9,-2.57 0.8,-4.05 -12.46,-0.77 -7.98,1.98 -3.38,1.33 -8.37,5.29zm-615.32 600.69c-15.96,7.91 -45.48,40.04 -60.2,56.4 -10.15,11.28 -17.15,18.32 -28.9,30.41 -8.67,8.91 -15.12,22.9 -29.66,25.55 10.71,9.91 3.57,0.83 5.65,11.84 0.52,2.74 2.01,15.39 2.81,20.31 18.09,5.5 7.94,-5.65 16.44,9.87 -0.44,0.99 -1.39,1.98 -1.9,2.66 -21.71,28.91 -12.2,22.05 -30.97,22.31 -0.39,-0.76 -0.59,-1.94 -0.72,-2.47l-1.57 -6.99c-0.66,-3.66 2.13,0.21 -1,-7.69 -8.38,1.95 -6.83,0.13 -9.54,13.18 1.02,-0.39 2.26,0.16 6.24,2.04 -0.11,39.23 -5.66,28.02 -9.85,32.09 -13.23,-9.17 -5.14,-9.31 -16.92,-19.63 -5.46,11.91 -10.81,27.98 -24.24,32.39 -9.48,3.12 -7.36,2.06 -15.18,2.68 -9.34,0.32 -15.36,5.36 -35.63,5.52 -15.37,0.13 -30.77,0.19 -46.15,0.29 -23.65,0.16 -70.41,-6.9 -87.89,3.81l277.98 0.44c9.27,2 3.73,0.46 7.31,2.65 13.2,-3.28 77.62,-2.51 94.67,-3.04 10.86,-23.15 45.42,-42.57 57,-68.52 -16.35,-3.33 -16.76,-5.91 -9.32,-17.32 8.54,-13.09 8.17,-15.3 24.29,-15.2 2.71,-15.26 8.38,-17.98 10.27,-27.13l6.44 6.06c1.19,0.95 2.77,9.27 9.6,2.06 6.5,-6.87 0.75,-13.85 -0.55,-21.67 8.37,-2.07 12.56,-2.88 15.94,-8.87l3.97 -9.24c4.92,-7.79 9.28,-7.11 17.63,-18.88l3.48 -5.46c0.24,-0.41 0.65,-1.31 0.87,-1.7 10.85,-19.52 -9.68,13.54 2.42,-4.6l19.4 -28.23c7.04,-14.11 19.67,-21.15 31.23,-31.4 12.45,-11.05 4.11,1.86 19.65,-19.3 0.44,-0.6 0.98,-1.4 1.45,-1.96l14.43 -11.63c7.79,-7.73 4.15,-10.25 17.17,-19.95 18.83,-14.02 18.42,-21.86 25.04,-24.28 6.32,-2.3 2.74,-1.51 9.57,-0.58 -2.66,-0.8 -4.06,-0.25 -4.15,-5.01 -0.21,-10.69 20.33,-22.33 26.68,-27.82l30.24 -22.11c-2.58,-4.89 -4.72,6.98 -0.75,-9.23 3.68,-15.06 17.97,-24.88 26.27,-35.25 3.64,-4.55 -0.04,-0.23 6.52,-5.21l10.62 -12.9c0.41,-0.57 0.92,-1.41 1.36,-1.95l15.06 -17.85c7.44,-13.34 15.63,-15.27 23.75,-25.65 7.3,-9.33 5.19,-5.06 14.09,-12.04l50.02 -48.56c11.09,-11.59 15.5,-27.56 33.06,-29.9 17.64,-2.34 3.71,-0.11 4.15,1.26 4.84,-25.77 13.99,-9.74 27.61,-27.39l8.55 -12.07c0.81,1.16 1.96,2.59 2.43,3.48l14.68 -27.04c2.9,-6.59 5.93,-5.47 11.82,-7.96 11.36,-4.81 13.66,-21.52 20.87,-33.4l16.78 -14.56c5.26,-3.37 8.02,-6.79 11.6,-12.3l10.06 -14.21c2.24,-2.54 9.48,-9.3 11.94,-11 4.17,-2.86 8.96,-5.37 14.09,-3.46 2.52,-4.67 1.27,-1.41 0.49,-3.59l-4.59 -5.86 17.54 -8.95c-0.31,-0.16 -1.67,-0.33 -1.92,-1.22 -0.26,-0.96 -1.4,-0.86 -2.06,-1.35 11.13,-8.01 23.74,-9.41 36.17,-16.04 -17.09,5.96 -2.39,2.86 -8.62,-6.96l3.26 -3.31c-6.73,-4.49 -9.14,-6.22 -17.07,-1.31 -9.99,6.19 6.18,11.18 -35.53,11.18l19.75 9.87c-19.9,0.73 -11.74,9.44 -24.51,21.09 -6.72,6.13 -7.52,5.69 -14.09,1.81 -9.53,-5.63 -7.31,10.15 -7.46,-13.06 -49.94,0 9.77,-9.87 -52.59,-9.87l5.44 -15.71c8.75,-34.95 1.56,-16.45 14.33,-26.95 14.71,-12.09 2.78,-1.2 3.53,-7.19 2.5,-20.06 13.72,0.6 5.16,-17.94l-13 1.49c0.05,5.96 1.7,8.33 -9.21,17.08 -9.95,7.97 -18.7,11.4 -21.18,18.32 -0.09,0.26 -0.23,1.23 -0.31,1.49 -0.07,0.24 -0.2,1.16 -0.28,1.4 -0.07,0.22 -0.29,1.04 -0.37,1.26 -0.08,0.21 -0.43,0.97 -0.52,1.19 -0.11,0.24 -0.56,0.98 -0.69,1.23 -0.29,0.57 -2.07,3.81 -3.69,6.7 -4.73,8.44 -4.77,6.99 -11.64,15.07l-12.19 13.93c-28.81,24.76 -20.01,9.5 -33.29,22.31 -17.99,17.36 4.47,5.47 -11.45,21.49l-18.26 21.95c-0.43,0.49 -1.11,1.19 -1.56,1.67 -16.38,16.93 -18.35,13.93 -26.41,18.91 -12.96,8.02 5.17,-6.18 -3.08,2.37l-3.17 6.25c-0.22,0.41 -0.6,1.32 -0.84,1.75 -6.77,12.17 -11.11,11.52 -11.63,27.47 -21.09,-0.43 -9.44,-0.21 -20.74,7.69 -11.94,8.34 -9.54,-2.41 -11.32,19.03 -2.65,0.44 -8.41,1.13 -10.61,2.05 -7.27,3.04 -2.9,0.81 -7.77,5.77 -35.81,36.35 -11.86,-2.51 -31.07,36.01l-11.83 13.59c-9.99,8.72 -6.77,11.64 -10.25,16.15 -7.74,10.05 -19.24,3.63 -24.51,24.39 -13.97,1.17 2.97,-13.51 -14.5,2.17 -8.31,7.45 -6.22,8.82 -8.52,20.85 -18,3.37 -26.8,9.68 -33.83,22.68 -10.44,19.29 -1.22,3.46 -13.54,15.31 -11.69,11.24 -3.24,7.67 -11.77,18.03l-3.16 3.17c-36.27,38.03 -10.59,13.75 -32.6,39.74 -7.6,8.98 -6.93,-5.25 -7.45,19.44 1.05,-4.82 5.68,2.11 -1.72,-3.95 -0.48,-0.39 -2.97,0.2 -3.42,-1.31 -0.56,-1.87 -2.89,-0.85 -4.32,-1.31 -7.98,17.33 -4.41,6.12 -19.78,22.98 -6.67,7.31 -2.78,5.08 -15.79,9.5l-0.73 19.7c0.35,-1.04 10.9,-7.67 -3.75,0.38 -9.53,5.24 -0.43,7.45 -15.7,5.27l-6.72 -2.34c0.77,20.09 1.45,13.91 -14.99,27.94 -40.99,35 -29.56,15.28 -31.46,38.23 -9.69,-4.16 -12.69,9.01 -30.38,21.2 -14.17,9.77 -1.57,-3.88 -11.96,8.39l-3.71 -8.98c-5.26,4.33 -2.46,2.69 -7.8,6.96 -6.62,5.31 5.01,-0.01 -7.12,4.72 -0,-0 -3.07,-1.57 0.25,-16.11zm-199.5 224.92c7.82,-0.62 5.7,0.44 15.18,-2.68 13.42,-4.41 18.78,-20.47 24.24,-32.39 11.78,10.33 3.69,10.46 16.92,19.63 4.19,-4.07 9.74,7.14 9.85,-32.09 -3.98,-1.88 -5.22,-2.43 -6.24,-2.04 2.71,-13.06 1.16,-11.23 9.54,-13.18 3.13,7.9 0.34,4.03 1,7.69l1.57 6.99c0.13,0.53 0.33,1.71 0.72,2.47 18.77,-0.26 9.26,6.59 30.97,-22.31 0.51,-0.68 1.46,-1.67 1.9,-2.66 -8.5,-15.52 1.65,-4.37 -16.44,-9.87 -0.8,-4.93 -2.29,-17.57 -2.81,-20.31 -2.08,-11.01 5.06,-1.93 -5.65,-11.84l-7.16 -4.66c2.81,21.21 2.41,16.75 -10.03,30.82 -0.63,0.72 -2.37,2.9 -2.99,3.63l-47.15 51.41c-0.49,0.52 -1.22,1.17 -1.73,1.68 -0.51,0.5 -1.31,1.06 -1.83,1.55 -0.52,0.48 -1.36,0.99 -1.87,1.48 -8.51,7.95 -10.7,13.92 -7.98,26.66z"/>
   <path class="fil5" d="M735.99 2977.85c-5.81,4.04 -1.17,-1.5 -7.51,6.87 -2.86,3.78 -2.5,4.19 -4.63,8.67 -5.69,11.91 -0.75,9.21 -11.04,15.68 -21.45,8.44 -53.72,-1.08 -78.45,3.17 21.37,58.99 23.38,32.3 31.97,99.2l691.74 0.17 4.65 -12.24 -10.19 4.94c-14.65,5.14 -31.86,-0.87 -45.71,-1.64 -65.97,-3.62 -429.1,3.75 -448.61,-0.03 6.73,-6 -1.65,-1.46 8.02,-3.89l59.94 -3.13 5.49 -14.74 39.46 0c3.93,-4.69 5.06,-8.28 11.9,-9.19 3.73,11.67 1.21,9.27 17.41,9.87l21.26 -5.22c-2.46,-6.24 1.54,-8.38 -20.68,-8.63l-2.91 -21.54c-10.54,4.39 -3.02,5.35 -15.96,3.22l-4.24 -0.81c-12.28,-0.61 -11.6,5.86 -25.32,-2.58 -9.92,-6.11 7.71,-0.38 -8.34,-5.1 -3.39,-1 -18.1,-0.86 -22.37,-0.72 -70.11,2.24 -41.37,-8.61 -93.2,-6.19 -5.96,-17.95 -19.66,-13.54 3.81,-12.1l21.62 -2.14c23.16,-1.73 15.43,1.22 47.98,-4.09 27.69,-4.52 229.69,-2.45 263.06,0.76 31.41,3.02 101.86,9.49 131.02,1.97 -7.26,-4.53 -10.81,-3.34 -22.29,-3.7l-200.8 -3.42c-73.95,-0.22 -156.79,3.08 -229.54,-1.09l11.29 -29.15c-7.83,2.2 -10.74,6.45 -14.36,-7.68 -6.46,-25.27 15.52,-20.06 14.49,-60.3 -6.52,-4.27 -5.67,-5.2 -15.9,-7.67 0.29,-0.11 15,-0.77 22.06,-6.58 1.02,-20.48 4.03,-10.99 -6.16,-16.44 11.9,-4.04 6.8,0.75 8.46,1.95 0.08,0.06 3.03,2.95 5.6,4.67 3.85,2.57 -1.08,1.93 8.54,4.18 0.14,-8.27 0.98,-2.54 -1.04,-10.46 -3.28,-12.8 0.75,0.25 -3.3,-7.46 -9.96,-18.96 -11.46,-17.23 -18.94,-16.81 -23.35,1.32 -18.77,18.99 -30.83,34.22l-52.83 55.9c-8.91,12.87 1.15,-10.33 -0.56,3.05l-1.05 7.18c-2.92,8.3 -4.77,3.14 -5.53,21.71l-9.41 -6.07c8.48,7.89 5.05,1.28 4.02,17.54 -10.17,1.48 -14.12,4.39 -23.43,-1.09 -0.1,-0.51 -0.3,-1.25 -0.29,-1.53l1.65 -11.48zm626.72 121.54c8.19,-8.3 32.65,-67.42 33.75,-79.24 -31.25,0.12 -70.8,-7.65 -100.31,-1.77 -29.16,7.52 -99.61,1.05 -131.02,-1.97 -33.37,-3.21 -235.37,-5.27 -263.06,-0.76 -32.55,5.31 -24.82,2.36 -47.98,4.09l-21.62 2.14c-23.46,-1.43 -9.76,-5.85 -3.81,12.1 51.83,-2.43 23.1,8.43 93.2,6.19 4.27,-0.14 18.98,-0.28 22.37,0.72 16.05,4.72 -1.58,-1 8.34,5.1 13.72,8.44 13.04,1.97 25.32,2.58l4.24 0.81c12.94,2.13 5.42,1.18 15.96,-3.22l2.91 21.54c22.22,0.26 18.22,2.4 20.68,8.63l-21.26 5.22c-16.2,-0.61 -13.69,1.79 -17.41,-9.87 -6.85,0.91 -7.97,4.51 -11.9,9.19l-39.46 0 -5.49 14.74 -59.94 3.13c-9.67,2.43 -1.29,-2.1 -8.02,3.89 19.51,3.78 382.64,-3.59 448.61,0.03 13.85,0.76 31.06,6.78 45.71,1.64l10.19 -4.94zm-379.2 -551.09l1.69 -1.34c-7.01,17.91 -50.88,85.6 -64.26,107.84 -25.9,43.05 -183.28,309.18 -184.96,323.05l-1.65 11.48c-0.01,0.28 0.19,1.02 0.29,1.53 9.31,5.49 13.26,2.57 23.43,1.09 1.03,-16.26 4.46,-9.65 -4.02,-17.54l9.41 6.07c0.76,-18.57 2.61,-13.41 5.53,-21.71l1.05 -7.18c1.71,-13.38 -8.35,9.82 0.56,-3.05l52.83 -55.9c12.07,-15.24 7.48,-32.9 30.83,-34.22 7.48,-0.43 8.98,-2.15 18.94,16.81 4.05,7.71 0.03,-5.33 3.3,7.46 2.02,7.91 1.18,2.19 1.04,10.46 -9.62,-2.25 -4.69,-1.61 -8.54,-4.18 -2.57,-1.72 -5.52,-4.61 -5.6,-4.67 -1.66,-1.2 3.44,-5.99 -8.46,-1.95 10.19,5.45 7.18,-4.04 6.16,16.44 -7.06,5.81 -21.77,6.47 -22.06,6.58 10.23,2.47 9.39,3.4 15.9,7.67 1.04,40.24 -20.95,35.03 -14.49,60.3 3.61,14.13 6.53,9.88 14.36,7.68 12.32,-12.71 112.22,-189.86 128.35,-218.28 23.28,-41.01 44.39,-74.45 64.55,-109.67 9.82,-17.16 21.04,-36.65 31.57,-53.69 11.93,-19.3 26.41,-39.36 32.88,-55.72l-22.76 -29.61c-8.32,2.86 2.77,6.29 -9.02,2.87 -1.42,-0.42 -8.25,12.5 -4.05,-7.56 -3.02,10.38 -1.6,8.07 1.87,13.23 8.06,12.02 8.18,17.01 4.56,31.95 -3.86,15.96 -5.26,10.9 -10.32,25.58 -2.66,7.7 -5.79,14.87 -2.67,20.86 -9.49,-1.21 -10.52,-4.73 -18.31,-6.58l-4.84 11.48c-0.33,0.77 -0.74,1.59 -1.07,2.38 -14.26,34.83 -12.65,16.6 -12.42,34.51 -5.24,-1.49 -4.51,-1.65 -6.91,-3.12 -1.35,-0.82 -3.34,-0.57 -4.22,-3.38 -0.37,-1.21 -1.31,-1.35 -2.03,-1.95 1.63,14.34 7.04,13.94 -2.05,25.17l-17.02 17.24c-0.24,0.29 -0.77,1.06 -0.99,1.35 -17.09,22.18 -19.57,7.59 -15.18,30.92 -13.86,-0.68 -6.81,0.07 -15.5,-3.29 0,13.46 -0.34,15.13 -2.82,25.37l-14 7.41c-8.04,10.96 -4.6,11.57 -24.53,15.13 0,13.48 1.13,33.43 -22.75,29.4 -25.83,-4.36 -8.02,-23.76 -5.22,-27.33 8.15,-10.35 12.22,-30.85 25.18,-20.83l-5.17 -15.04c15.36,-4.74 14.04,-8.35 17.18,-18l4.91 -13c6.99,2.75 21.36,0.47 9.4,12.69 1.39,-16.85 -2.4,-16.51 -6.11,-29.61l8.18 -4.55c0.71,-0.41 4.05,-1.87 5.87,-3.93 10.36,-11.72 -0.25,-20.96 12.91,-33.27 0.6,-0.56 1.39,-1.1 2.04,-1.58 0.66,-0.48 1.5,-0.94 2.19,-1.35l11.56 -4.17 1.72 -13.31c11.16,-33.88 -2.31,-10.15 9.6,-34.05 9.66,-19.37 -4.09,-17.33 17.8,-18.89 0.04,-13.07 -1.39,-18.15 5.04,-27.54 4.62,-6.76 1.72,-8.09 17.98,-8.61 -6.72,-7.12 -3.46,-9 0.75,-14.93 10.72,-15.12 0.79,-0.46 17.77,-8.5 0.6,-0.28 3.02,-1.94 4.11,-2.52l4.69 -2.21c0.54,-0.25 3.27,-1.37 4.35,-2.03 -1.63,-9.58 -3.19,-8.74 -7.91,-16.6 -7.33,-12.19 -4.41,-11.15 -13.91,-16.67 -21.46,14.45 -49.96,78.62 -66.52,91.11zm105.88 -34.26c-2.81,-6.22 -2.3,-6.69 -6.66,-13.07 -0.41,-0.6 -4.02,-4.85 -4.74,-5.56 -4.11,-4.04 -1.16,-1.51 -6.13,-4.95 -1.08,0.66 -3.81,1.78 -4.35,2.03l-4.69 2.21c-1.09,0.58 -3.51,2.24 -4.11,2.52 -16.98,8.04 -7.06,-6.61 -17.77,8.5 -4.2,5.93 -7.46,7.81 -0.75,14.93 -16.26,0.53 -13.36,1.86 -17.98,8.61 -6.43,9.39 -5,14.47 -5.04,27.54 -21.89,1.56 -8.14,-0.48 -17.8,18.89 -11.92,23.89 1.56,0.17 -9.6,34.05l-1.72 13.31 -11.56 4.17c-0.69,0.41 -1.53,0.87 -2.19,1.35 -0.66,0.48 -1.44,1.02 -2.04,1.58 -13.16,12.3 -2.55,21.55 -12.91,33.27 -1.82,2.06 -5.16,3.52 -5.87,3.93l-8.18 4.55c3.71,13.1 7.5,12.76 6.11,29.61 11.96,-12.22 -2.41,-9.93 -9.4,-12.69l-4.91 13c-3.14,9.65 -1.82,13.26 -17.18,18l5.17 15.04c-12.96,-10.02 -17.03,10.48 -25.18,20.83 -2.81,3.57 -20.62,22.97 5.22,27.33 23.87,4.04 22.75,-15.92 22.75,-29.4 19.93,-3.55 16.5,-4.17 24.53,-15.13l14 -7.41c2.48,-10.24 2.82,-11.91 2.82,-25.37 8.69,3.36 1.65,2.61 15.5,3.29 -4.39,-23.33 -1.91,-8.74 15.18,-30.92 0.22,-0.3 0.75,-1.07 0.99,-1.35l17.02 -17.24c9.09,-11.22 3.69,-10.82 2.05,-25.17 0.72,0.6 1.65,0.74 2.03,1.95 0.88,2.81 2.87,2.56 4.22,3.38 2.4,1.46 1.67,1.63 6.91,3.12 -0.23,-17.91 -1.84,0.32 12.42,-34.51 0.32,-0.79 0.74,-1.61 1.07,-2.38l4.84 -11.48c7.79,1.85 8.82,5.37 18.31,6.58 -3.12,-5.99 0.02,-13.15 2.67,-20.86 5.06,-14.68 6.46,-9.62 10.32,-25.58 3.62,-14.94 3.5,-19.94 -4.56,-31.95 -3.46,-5.17 -4.88,-2.85 -1.87,-13.23 -4.2,20.06 2.63,7.14 4.05,7.56 11.79,3.42 0.7,-0.01 9.02,-2.87zm98.79 366.84l83.34 -0.18 -1.83 -72.9 -81.07 -0.39 -0.44 73.48zm-109.92 -102.45l47.4 1.5 34.02 -0.27 -0.35 -89.72c-20.09,-4.03 -47.18,17.16 -57.13,27.63 -11.65,12.25 -25.86,36.37 -23.95,60.87zm109.54 0.72l81.39 0.12c7.82,-39.31 -44.24,-90.16 -80.54,-91.36l-0.85 91.24zm-104.9 93.34c0,-73.53 -18.8,-59.22 69.09,-59.22l0 63.09c-4.75,-0.01 -12.23,-2.37 -20.72,-3.86 15.82,-7.74 -1.88,8.17 3.55,-4.37 3.22,-7.44 0.38,-5.47 0.61,-15.76 0.33,-14.94 9.03,-38.32 -32.2,-19.1 -1.55,43.36 11.3,29.15 -3.64,36.88l-16.7 2.34zm-6.61 6.63l82.33 1.48 0.38 -72.83 -81.65 -0.83 -1.06 72.18zm6.61 -6.63l16.7 -2.34c14.94,-7.73 2.09,6.48 3.64,-36.88 41.22,-19.22 32.53,4.16 32.2,19.1 -0.23,10.28 2.61,8.31 -0.61,15.76 -5.43,12.54 12.27,-3.37 -3.55,4.37 8.49,1.49 15.97,3.85 20.72,3.86l-0 -63.09c-87.89,0 -69.09,-14.3 -69.09,59.22z"/>
   <path class="fil6" d="M4345.67 4397.08l1419.97 14.98 -0.74 -30.01 -1421.07 -15.09 1.84 30.12zm-3696.87 -15.28l1421.28 14.35 -1.06 -29.52 -1420.56 -14.67 0.33 29.83zm1580.93 -62.98c30.46,-5.9 49.82,-5.17 68.21,12.02 14.28,13.35 24.07,32.6 24.32,57.51 0.57,55.3 -33.76,80.67 -90.32,73.57 -6.81,-16.91 -3.85,-119.02 -2.22,-143.1zm120.3 55.88c-20.81,-27.5 -4.78,-37.42 -47.37,-58.29 -28.18,-13.8 -65.58,-12.29 -100.04,-10.63l1.61 165.52c36.06,2.44 82.59,3.15 109.48,-12.85 35.74,-21.25 29.35,-38.89 36.32,-83.75zm319.92 96.72l-0.62 -86.33c10.67,-11.75 19.16,-15.84 38.3,-13.02 15.45,27.3 2.14,66.36 8.68,99.72l20.1 -0.15 1.44 -88.89c10.07,-7.15 19.23,-14.14 38.27,-10.05 10.66,18.13 9.84,73.26 5.23,98.23l22.9 1.06c0.01,-22.2 2.58,-80.59 -3.53,-98.11 -13.31,-38.14 -51.89,-8.64 -67.06,-1.82 -20.8,-31.85 -42.2,-12.53 -65.77,0.37 -1.57,-0.74 -30.08,-28.87 -28.02,-4.48l5.01 13.07c3.3,9.28 2.56,16.77 2.54,27 -0.03,21.12 -0.11,42.24 -0.13,63.36l22.67 0.06zm1299.12 0.33l-1.02 -86.1c21.35,-19.21 43.87,-19.95 46.97,6.16l0.28 79.67 21.33 0.18c0,-40.29 1.46,-71.74 -5.41,-106.79 -37.25,-16.17 -31.49,-9.24 -63.54,6.76l-0.52 -71.69 -19.79 0.11 -0.52 171.03 6.76 0.79 15.46 -0.12zm-699.44 -0.11c-4.58,-10.07 -2.52,-77.63 1.54,-88.56 12.88,-12.75 21.31,-12.9 38.83,-8.45 11.25,24.37 5.73,66.48 5.77,97.51l21.52 -2.46 -1.17 -89.2c-4.76,-14.04 -9.57,-24.8 -30.24,-24.63 -17.54,0.15 -26.21,11.75 -38.13,15.22l-0.29 -71.25 -19.65 0.26 -0.43 171.42 22.24 0.14zm-155.63 -103.02c-0.78,-15.6 5.87,-7.26 -5.48,-9.74l-33.46 84.44 -34.59 -84.7 -21.49 -0.81c4.14,22.64 12.71,19.75 2.88,45.94 -4.45,11.84 -8.73,28.06 -15.27,39.25 -18.83,-22.78 -18.09,-61.97 -36.17,-84.65l-21.24 -0.03c11.1,23.91 39.48,102.22 50.83,115.91 0.57,-0.54 1.28,-1.36 1.57,-1.75 7.11,-9.33 10.98,-22.44 15.62,-34.2 5.06,-12.81 8.39,-26.21 15.69,-36.82l10.48 19.13c2.65,6.34 4.93,11.32 7.98,18.49 2.61,6.15 4.63,11.6 7.63,18.71 0.57,1.35 3.77,8.33 4.11,8.91l4.33 5.89c0.22,-0.52 1.04,1.27 3.13,2.43l43.44 -106.41zm293.29 9.86c8.18,10.02 4.34,74.58 4.34,92.87l21.62 -0.61 1.06 -85.66c56.23,-53.24 43.05,52.91 43.06,86.42l21.66 -0.9c0,-23.05 0.21,-46.19 0.06,-69.22 -0.28,-41.21 -8.98,-32.41 -19,-45.18 -24.9,-2.14 -32.51,5.15 -46.02,16.01 -15.95,-6.68 -13.99,-19.25 -32.36,-9.49 1.37,9.07 1.34,5.86 5.59,15.77zm306.49 23.28l-57.01 0.65c6.55,-49.61 52.81,-43.53 57.01,-0.65zm-72.68 49.06c11.38,7.14 9.59,16.45 30.92,21.94 22.38,5.76 31.79,-2.65 46.58,-1.54 0.65,-0.67 1.77,-2.48 2.06,-1.88 0.28,0.58 1.58,-1.44 1.94,-1.88 0.44,-0.53 2.67,-3 3.11,-3.72 2.78,-4.48 2.35,3.08 2.45,-7.7 -46.05,5.02 -69.87,10.03 -73.31,-45.19l79.5 -0.96c5.19,-83.79 -125.67,-72.45 -93.25,40.93zm-1194.41 -48.83c8.02,-50.99 52.42,-41.02 57.37,0.23l-57.37 -0.23zm-20.22 -11.11c1.02,31.7 -6.92,55.92 19.81,74.46 31.3,21.7 49.83,2.9 72.58,-1.37l-1.01 -8.51c-45.48,12.94 -70.8,2.35 -72.76,-45.26l77.72 -0.06c7.9,-38.71 -30.79,-72.19 -72.69,-45.47 -15.64,9.98 -11.01,15.08 -23.65,26.2zm142.77 71.78c-30,-22.33 -5.17,-40.19 27.69,-42.61 0.53,28.13 -2.37,38.46 -27.69,42.61zm-27.99 4.71c14.37,11.2 23.98,4.76 40.26,4.17 6.11,-7.36 6.13,-9.54 17.72,-13.17 12.41,9.27 13.62,22.27 26.81,9.83l-5.14 -16.06c-3.64,-9.85 -3.09,-13.41 -3.18,-24.2 -0.28,-36.06 8.74,-72.92 -38.55,-72.77 -12.32,0.04 -34.98,3.4 -39.32,16.74 11.41,4.03 29.62,-8.1 53.4,2.2 3.34,10.48 4.4,23.95 2.72,37.26 -21.98,8.97 -86.54,12.73 -54.72,55.99zm1238.08 -4.68c-8.75,-6.28 -13.07,-9.25 -12.29,-25 11.19,-13.56 17.94,-15.98 39.96,-17.58 0.76,27.94 -3.27,38.23 -27.68,42.59zm-26.11 9.31c45.06,4.94 27.42,-3.76 56.11,-13.85l14.17 15.62c28.04,-4.7 6.48,-9.85 4.39,-35.88 -2.89,-35.98 13.4,-80.95 -35.41,-82.67 -13.14,-0.46 -38.09,2.37 -42.65,16.7 9.81,3.4 27.33,-5.61 41.8,-2.35 19.95,4.49 15.5,24.15 15.58,43.39 -45.55,3.96 -77.12,16.31 -54,59.04zm-881.32 -0.28c29.66,-7.03 30.3,-40.8 8.82,-56.2 -15.53,-11.13 -56,-21.67 -35.26,-46.73 16.17,-6.83 27.54,4.61 44.06,7.84 0.6,-15.06 3.89,-11.11 -4.61,-18.09 -15.2,-2.39 -34.38,-6.98 -48.73,0.86 -13.59,7.43 -18.86,24.72 -11.6,39.63 13.1,26.91 58.34,20.17 48.17,59.46 -7.74,3.58 -15.14,7.09 -27.16,6.12 -12.21,-0.98 -19.57,-7.07 -26.89,-3.92 8.33,17.56 37.16,15.47 53.2,11.02zm987.19 -6.43c11.5,2.61 15.02,8.9 32.04,9.35 17.89,0.48 22.72,-6.44 34.73,-6.5l3.26 -12.57c-40.43,10.82 -69.35,-0.14 -66.7,-43.88 0.99,-16.37 8.97,-34.51 17.89,-40.82 15.65,-11.07 28.33,5.02 45.74,4.09 0.4,-8.41 5.24,-23.13 -34.74,-19.46 -39.61,3.63 -66.11,53.16 -36.51,102.4 4.67,7.77 -0.71,-2.92 4.3,7.39zm-667.99 9.72c11.21,-0.92 27.1,-3.18 36.13,-3.04l2.68 -8.81c-32.2,2.7 -30.44,-0.01 -30.1,-31.98 0.21,-19.62 -2.61,-45.77 1.93,-64.11 14.02,-0.07 20.83,1.96 28.1,-5.02 -8.7,-6.46 -15.38,-3.93 -28.64,-4.01l-2.29 -21.94c-27.36,15.33 -7.82,13.23 -33.21,23.13 -9.62,3.75 -1.06,-2.3 -6.51,2.82 21.31,11.82 19.78,-16 19.38,65.83 -0.13,26.4 0.93,32.88 12.52,47.13zm-826.05 -2.32l21.41 -0.91 -0.03 -82.55c7.89,-6.27 12.72,-12.07 25.18,-12.85l4.7 -2.59c11.67,-8.69 8.98,-7.47 7.99,-18.75 -18.82,0.5 -28.12,11.34 -38.22,22.2 -7.48,-16.71 -0.09,-17.51 -17.42,-19.01l-3.38 10.48c-0.43,3 -0.43,9.65 -0.43,12.89l0.2 91.07zm1231.12 -0.04l-0 -83.42c40.59,-28.01 39.36,-9.3 38.8,-30.47 -6.37,-6.02 3.6,-3.87 -13.46,-3.29 -3.56,4.14 -22.47,17.95 -27.04,20.38 -4,-14.76 1.36,-16.52 -15.72,-17.54l-3.86 56.35c0.01,18.88 0,37.76 -0,56.72l21.29 1.27zm-469.45 0.14l19.54 -2.01c3.73,-20.88 6.69,-97.14 -1.57,-112.2l-17.22 -0.36 -0.75 114.57zm235.94 -0.72l21.06 -1.66 -0.03 -98.5 0 -12.72 -20.6 -0.64 -0.43 113.52zm697.78 -2.73l11.93 4.32c6.09,0.73 9.33,-0.67 15.19,-1.89l-1.45 -22c-21.04,-5.89 -23.54,-1.66 -25.68,19.57zm62.78 -15.5l3.71 18.9 19.7 -0.96c14.76,-21.87 -4.28,-30.35 -23.41,-17.94zm66.92 18.48l1.85 1.12 17.01 -0.98c4.49,-6.44 6.01,-10.13 3.18,-20.61 -20.24,-12.09 -26.96,1.42 -22.04,20.48zm-1039.87 -149.74c-7.75,-18.93 -25.43,-14.19 -25.78,0.03 -0.35,13.74 18.37,21.86 25.78,-0.03zm213.46 -7.81c-4.91,10.35 -4.41,3.81 -0.82,16.63 29.48,17.05 33.29,-33 0.82,-16.63z"/>
   <path class="fil7" d="M5356.46 3057.81c10.92,-6.93 4.88,-10.54 15.19,-1.48 16.3,14.31 -23.57,31.02 -28.23,32.58 -9.7,3.25 -8.01,0.91 -18.28,1.9 -13.63,1.31 -5.85,1.22 -16.8,4.94 -26.89,9.15 -20.31,1.47 -29.54,16.77 20.92,14.15 25.26,-5.46 32.87,-4.56 14.1,6.57 26.95,7.87 42.16,6.44 19.63,-1.84 29.47,-0.23 38.5,-3.64 -3.68,8.31 1.67,2.07 -13.63,5.06l26.74 3.28c-0.74,-20.79 9.46,-20.04 3.31,-46.37 -2.52,-10.77 -1.14,3.07 -2.13,-9.91l1.94 -153.03c8.11,1.4 2.46,-4.04 5.68,5.5 4.25,12.6 0.52,5.79 -0.63,7.86l4.18 -30.5c10.2,-31.94 -12.07,24.24 5.37,-9.48 6.21,-12 4.09,-30.26 2.67,-43.54 -5.1,-44.28 -2.65,-108.4 -3.17,-154.77 -0.34,-30.36 -0.3,-20.07 -25.83,-48.85 -7.2,-8.12 -28.79,-32.21 -40.03,-36.98l-0.35 458.77zm0 0c-25.59,0.31 -184.8,-1.52 -199.2,6.37 27.97,7.7 136.25,1.17 173.87,2.31 -14.96,14.13 -23.17,11.64 -46.51,13.8 -50.95,4.7 -232.56,0.96 -281.42,-4.99 -17.01,-2.07 -34.77,-8.54 -44.78,6.15 -2.58,3.8 -6.68,17.98 -6.21,24.49 0.63,8.76 0.48,5.57 3.04,10.54l7.86 9.9c110.34,3.01 231.33,-10.03 335.4,-7 26.37,0.77 94.2,6.67 115.09,0.07 9.01,-20.92 4.95,-111.64 6.59,-143.05l-0.28 40.95c3.15,17.68 -2.68,6.33 7.63,16.26l-1.31 -134.79c-0.56,-18.97 -3.24,-41.47 1.46,-59.16l-1.87 0c1.43,13.28 3.54,31.54 -2.67,43.54 -17.44,33.73 4.83,-22.46 -5.37,9.48l-4.18 30.5c1.14,-2.07 4.87,4.74 0.63,-7.86 -3.22,-9.54 2.43,-4.1 -5.68,-5.5l-1.94 153.03c0.98,12.98 -0.39,-0.86 2.13,9.91 6.15,26.33 -4.06,25.58 -3.31,46.37l-26.74 -3.28c15.3,-2.99 9.96,3.26 13.63,-5.06 -9.04,3.41 -18.87,1.8 -38.5,3.64 -15.21,1.42 -28.06,0.13 -42.16,-6.44 -7.61,-0.91 -11.95,18.7 -32.87,4.56 9.23,-15.3 2.65,-7.62 29.54,-16.77 10.94,-3.72 3.17,-3.63 16.8,-4.94 10.27,-0.99 8.58,1.35 18.28,-1.9 4.66,-1.57 44.53,-18.27 28.23,-32.58 -10.31,-9.06 -4.27,-5.45 -15.19,1.48zm-199.2 6.37c-21.05,-5.3 -179.26,-0.28 -211.91,1.3 -3.87,12.67 -3.83,58.41 0.24,71.15l483.89 4.26 -1.92 -107.3c-10.31,-9.92 -4.48,1.42 -7.63,-16.26l0.28 -40.95c-1.64,31.41 2.42,122.13 -6.59,143.05 -20.89,6.6 -88.72,0.7 -115.09,-0.07 -104.07,-3.03 -225.06,10.01 -335.4,7l-7.86 -9.9c-2.56,-4.97 -2.41,-1.78 -3.04,-10.54 -0.47,-6.51 3.63,-20.7 6.21,-24.49 10.01,-14.69 27.77,-8.22 44.78,-6.15 48.85,5.96 230.46,9.69 281.42,4.99 23.33,-2.16 31.55,0.33 46.51,-13.8 -37.62,-1.14 -145.9,5.39 -173.87,-2.31zm31.69 -402.15c-2.53,-26.45 7.44,-40.11 37.23,-37.71 6.96,8.39 2.92,12.91 15.21,32.9 0.31,0.51 0.98,1.3 1.24,1.81 9.81,19.29 -28.79,25.91 -43.46,14.18 -10.24,-8.19 -3.46,-0.2 -10.23,-11.19zm-21.41 45.84l104.08 -0.61c6.2,-42.41 -5.96,-73.47 -24.91,-98.63 -11.5,-15.25 -49.83,-47.18 -80.28,-46.09l1.11 145.33zm29.84 66.21c-3.65,-7.11 -3.45,3.87 -0.8,-4.63 17.56,-7 26.44,-1.03 45.13,-0.99 1.51,20.56 19.82,66.94 -5.6,78.97 -0.41,0.19 -1.28,0.51 -1.71,0.69 -19.34,7.85 -25.84,0.55 -30.44,0.01l-3.03 0.06c-22.78,0.27 12.71,4.68 -6.73,0.37 -0.5,-17.27 -1.12,-17.46 5.98,-28.69 -2.15,-7.62 5.6,-0.83 -9.27,-7.19 0.02,-7.78 0.12,-17.94 1.28,-23.76l3.18 -7.06c3.22,-3.67 0.96,-2.25 5.81,-3.44 -3.63,-7.02 -1.17,0.79 -3.8,-4.34zm-29.65 -28.81c-3.18,21.22 -0.31,60.78 -0.61,84.46 -0.65,50.99 -17.39,43.84 104.41,40.39l0.04 -125.71 -103.84 0.85zm-98.85 -133.3c16.82,-12.43 6.98,-3.2 9.65,-3.44 2.63,-0.24 0.52,0.41 4.32,-0.37 23.66,-4.89 23.95,-10.19 18.13,70.09 -28.39,5.97 -54.28,14.3 -51.98,-23.15 1.07,-17.41 -1.11,-7.28 5.64,-16.83 21.65,-30.66 6.27,-3.95 2.19,-15.7l12.05 -10.6zm59.04 -49.72c-31.26,1.71 -65.14,29.69 -77.59,45.55 -20.56,26.21 -29.07,53.33 -26.15,98.63l104.93 -0.04 -1.19 -144.14zm-81.19 282.04c6.83,-19.36 0.63,-21.26 3.41,-40.95 2.49,-17.7 6.94,-8.46 7.86,-33.26l21.13 9.4 -2.35 8.47 23.02 0.93c1.13,13.04 2.3,22.54 3.49,31.26 0.98,7.18 2.31,21.16 -2.79,26.04 -6.48,6.2 -46.85,0.67 -53.76,-1.89zm-9.09 25.18l89.28 -0.88 -0.81 -107.9 -5.17 21.26c-2.1,-5.89 -3.88,-13.12 -5.38,-18.86 -51.08,-4.59 -33.15,-5.76 -77.27,3.4 -1.35,19.92 -3.57,33.54 -3.61,53.32 -0.04,15.79 5.59,42.18 2.95,49.66zm158.93 -100.02c-2.66,8.5 -2.85,-2.48 0.8,4.63 2.63,5.13 0.17,-2.67 3.8,4.34 -4.85,1.19 -2.59,-0.23 -5.81,3.44l-3.18 7.06c-1.16,5.81 -1.26,15.98 -1.28,23.76 14.87,6.36 7.13,-0.44 9.27,7.19 -7.11,11.23 -6.48,11.41 -5.98,28.69 19.44,4.31 -16.04,-0.1 6.73,-0.37l3.03 -0.06c4.6,0.54 11.1,7.84 30.44,-0.01 0.43,-0.17 1.3,-0.49 1.71,-0.69 25.42,-12.02 7.11,-58.41 5.6,-78.97 -18.69,-0.04 -27.56,-6.01 -45.13,0.99zm-139.74 -146.88c4.09,11.75 19.46,-14.96 -2.19,15.7 -6.75,9.55 -4.57,-0.59 -5.64,16.83 -2.3,37.44 23.59,29.12 51.98,23.15 5.82,-80.28 5.52,-74.97 -18.13,-70.09 -3.8,0.78 -1.69,0.13 -4.32,0.37 -2.67,0.25 7.17,-8.98 -9.65,3.44l-12.05 10.6zm-10.1 221.72c6.91,2.56 47.29,8.09 53.76,1.89 5.1,-4.88 3.77,-18.86 2.79,-26.04 -1.19,-8.73 -2.36,-18.22 -3.49,-31.26l-23.02 -0.93 2.35 -8.47 -21.13 -9.4c-0.92,24.8 -5.37,15.57 -7.86,33.26 -2.78,19.69 3.43,21.59 -3.41,40.95zm-9.09 25.18c2.65,-7.48 -2.98,-33.87 -2.95,-49.66 0.04,-19.78 2.26,-33.4 3.61,-53.32 44.12,-9.15 26.19,-7.99 77.27,-3.4 1.5,5.74 3.28,12.97 5.38,18.86l5.17 -21.26 -1.88 -14.43 -98.46 0.86 0.74 121.13 11.13 1.21zm151.3 -207.44c6.77,10.98 -0.01,2.99 10.23,11.19 14.67,11.73 53.27,5.11 43.46,-14.18 -0.26,-0.52 -0.93,-1.31 -1.24,-1.81 -12.29,-19.99 -8.25,-24.52 -15.21,-32.9 -29.79,-2.41 -39.76,11.26 -37.23,37.71zm-62.83 98.67l0.81 107.9 -89.28 0.88 -11.13 -1.21 -0.74 -121.13 98.46 -0.86 1.88 14.43zm0.81 107.9c6.27,-7.33 3.31,-115.74 2.38,-123.07 -13.05,-6.4 -92.33,-6.19 -107.74,-0.98l1.72 126.91c19.17,4.62 58,1.37 81.28,1.41 24.34,0.05 19.61,1.07 22.36,-4.28z"/>
   <path class="fil8" d="M2923.64 2033.96l-2.88 0.09c-16.89,4.85 -4.57,7.6 -14.88,24.4 -8.6,14.03 -3.97,0.57 -7.72,14.6 -2.91,10.87 2.21,-1.59 -3.61,5.2 -2.38,2.77 -3.1,1.45 -5.52,9.58 -2.36,7.93 -2.24,8.8 -2.65,19.93 6.13,3.5 8.77,5.38 15.37,11.85l10.43 12.55c6.95,5.4 10.46,0.2 12.3,9.81 1.71,8.98 -5.77,-6.12 2.08,18.78 8.14,-0.01 18.09,0.63 25.32,3.91 7.8,3.54 3.74,1.84 9.03,7.25 0.66,0.68 2.5,2.73 3.13,3.43 5.09,5.66 0.78,0.13 4.43,5.04 3.88,5.22 1.02,1.99 4.8,7.9 5.45,8.51 2.35,2.7 7.28,9.5 11.78,16.28 -1.57,17.32 14.43,29.02l18.19 18.7c11.27,-2.74 35.16,-7.56 44.84,-15.63l17.28 -15.06c2.87,-43.5 -8.09,-26.29 -6.2,-46.03 -0.12,-0.04 -9.87,-0.16 -18.54,-13.72l-7.2 -10.2c-0.49,-0.53 -1.28,-1.12 -1.77,-1.63l-9.94 -15.28c-6.37,-14.18 -20.78,-30.7 -32.69,-46.94 -17.1,-23.35 -17.75,-37.73 -34.5,-50.78 -5.48,-4.27 -3.15,-1.11 -7.74,-5.58 -8.78,-8.55 -1.91,-3.43 -5.78,-10.23 -8.13,-14.28 -5.23,-5.1 -10.47,-4.67 -0.74,0.06 -3.12,0.23 -3.89,0.47 -6.39,2.02 -8.63,-0.45 -12.89,23.74zm0 0c4.26,-24.2 6.5,-21.72 12.89,-23.74 0.77,-0.24 3.15,-0.41 3.89,-0.47 5.24,-0.44 2.33,-9.61 10.47,4.67 3.88,6.8 -2.99,1.68 5.78,10.23 4.59,4.48 2.26,1.31 7.74,5.58 16.75,13.05 17.4,27.43 34.5,50.78 11.9,16.25 26.31,32.76 32.69,46.94l9.94 15.28c0.49,0.5 1.28,1.1 1.77,1.63l7.2 10.2c8.67,13.57 18.42,13.68 18.54,13.72 -1.89,19.74 9.07,2.54 6.2,46.03l-17.28 15.06c-9.68,8.06 -33.57,12.88 -44.84,15.63l-18.19 -18.7c-16,-11.7 -2.65,-12.73 -14.43,-29.02 -4.93,-6.8 -1.83,-1 -7.28,-9.5 -3.78,-5.91 -0.92,-2.67 -4.8,-7.9 -3.65,-4.92 0.66,0.62 -4.43,-5.04 -0.63,-0.7 -2.47,-2.75 -3.13,-3.43 -5.28,-5.41 -1.23,-3.71 -9.03,-7.25 -7.23,-3.28 -17.19,-3.92 -25.32,-3.91 -7.85,-24.9 -0.37,-9.8 -2.08,-18.78 -1.83,-9.61 -5.34,-4.41 -12.3,-9.81l-10.43 -12.55c-6.6,-6.47 -9.23,-8.35 -15.37,-11.85 0.41,-11.13 0.3,-12.01 2.65,-19.93 2.42,-8.13 3.14,-6.81 5.52,-9.58 5.82,-6.79 0.71,5.67 3.61,-5.2 3.75,-14.02 -0.88,-0.57 7.72,-14.6 10.31,-16.8 -2.01,-19.55 14.88,-24.4l2.88 -0.09zm91.07 265.63c8.28,-14.46 92.64,-71.54 102.11,-91.35 -8.04,-16.96 -32.33,-47.64 -44.89,-65.26 -6.78,-9.53 -41.24,-54.03 -43.81,-63.83 -19,-11.73 -67.16,-92.46 -87.31,-102.06l-83.54 116.07c12.67,28.55 56.01,78.16 76.48,105.76l56.2 78.53c8.35,11.69 9.07,20.11 24.75,22.14zm-195.19 171.23l83.07 1.97 0.46 -74.57 -82.87 0.54 -0.67 72.06zm51.68 -171.78l-29.06 -16.73 -19.56 -4.03c-4.41,10.93 -4.45,79.84 -1.61,92.32l82.26 0.3c1.72,-14.51 -4.78,-28.8 -9.8,-39.52 -8.13,-17.35 -15.97,-19.32 -22.23,-32.34zm-98.08 -17.98l-41.87 27.83c-8.82,22.61 -22.57,28.33 -19.33,62.39l79.19 0.19 1.48 -94.04 -19.46 3.63zm-6.59 150.78c-2.57,-1.97 -4.61,-7.99 -14.78,-11.5 -4.52,11.8 -21.92,4.25 -13.95,28.86l1.01 3.88c-1.05,3.63 -7.03,3.58 -3.78,8.35l5.63 2.53c28.58,7.29 31.12,-9.96 41.78,-5.56 13.38,5.52 -0.09,-7.43 7.1,6.32l-72.34 0.02c0,-20.43 3.2,-43.17 -5.45,-59.22l74.8 0c-0.22,3.47 10.55,-5.96 -3.51,9.11l-5.57 2.83c-16.47,0.34 -3.94,-0.54 -4.91,-3.17l-4.68 15.31c-0.25,0.53 -0.76,1.59 -1.33,2.24zm-55.53 37.9l77.98 0.87 1.25 -69.85 -79.24 -0.54 0 69.52zm55.53 -37.9c0.58,-0.65 1.08,-1.7 1.33,-2.24l4.68 -15.31c0.96,2.63 -11.56,3.51 4.91,3.17l5.57 -2.83c14.06,-15.07 3.29,-5.63 3.51,-9.11l-74.8 -0c8.66,16.06 5.45,38.79 5.45,59.22l72.34 -0.02c-7.19,-13.75 6.28,-0.81 -7.1,-6.32 -10.66,-4.39 -13.2,12.85 -41.78,5.56l-5.63 -2.53c-3.25,-4.77 2.73,-4.72 3.78,-8.35l-1.01 -3.88c-7.97,-24.61 9.43,-17.06 13.95,-28.86 10.17,3.51 12.22,9.54 14.78,11.5zm-55.53 -31.62l79.24 0.54 -1.25 69.85 -77.98 -0.87 0 -69.52zm-4.17 -1.26c-3.21,15.54 -2.85,58.3 1.73,74.18 14.56,3.53 68.22,3.3 82.93,0.05 5.39,-14.94 7,-62.53 -0.42,-75.79 -14.94,-3.07 -71.48,-3.68 -84.23,1.56z"/>
   <path class="fil9" d="M3450.04 2905.07c-3.49,-10.07 4.13,-5.85 -12.44,-7.37l-49.58 0.48c-18.73,0.13 -44.68,1.65 -62.49,-1.08 5.71,11.52 23.26,5.06 46.69,7.48 3.72,0.38 5.01,0.32 8.61,1.29 7.9,2.14 2.72,-0.46 7.74,3.32 -58.02,-4.38 -55.93,7.49 -59.66,35.45 -5.48,41.08 -9.98,22.83 -3.32,69.49 4.96,34.72 19.09,25.3 103.26,26.77 0.13,-11.16 2.45,-20.78 2.76,-27.35 0.44,-9.38 -2.31,-16.06 -2.34,-29.15 -0.02,-7.74 1.03,-71.75 -2.89,-64.27l-18.68 -11.51c-0.97,-0.36 -4.08,-1.34 -4.94,-1.63l-4.87 -1.63c11.39,-3.47 10.81,-0.18 22.85,-0.71 19.55,-0.87 14.39,-6.77 29.31,0.43zm-115.26 -165.56c17.02,7.74 7.13,3.28 0.04,17.88l4.1 1.91c3.21,2.37 0.35,-4.87 1.66,3.03 -10.35,4.56 -6.55,3.25 -11.17,12.35 -11.1,21.84 1.07,12.5 -0.02,33.97 -0.22,4.42 -2.45,15.67 2.03,18.96 26.8,7.08 63.52,2.45 92.77,-0.8l10.28 -16.91c1.67,-8.65 -0.21,-20.44 -0.02,-29.57 0.37,-17.57 4.06,-30.33 4.06,-52.54 -2.78,-9.71 -9.15,-0.87 -9.38,-22.32 -0.01,-1.11 0.17,-1.57 -0.02,-2.33l-7.86 -2.55c-13.79,-3.65 -15.51,-2.87 -24.36,-0.37 -28.26,7.98 -17.15,6.85 -21.14,1.51 -3.51,-4.7 -2.75,2.34 -0.91,-7.86 -13.42,5.39 -15.6,9.12 -24.3,19.63 -7.09,8.57 -11.84,14.98 -15.76,26.01zm188.31 293.85l39.33 0.12c18.94,-1.35 34.07,1.76 53.43,-2.35 1.58,-12.05 4.06,-25.91 4.21,-40.41 0.35,-33.44 4.44,-24.9 4.8,-36.55 0.63,-20 -4.6,-6.63 -3.63,-20.46 0.23,-3.34 2.46,-4.24 -0.85,-11.08 -0.26,-0.54 -0.86,-1.44 -1.17,-1.96 -3.69,-6.24 -1.97,-3.06 -3.85,-5.2l-10.32 -8.65c-23.28,2.86 -67.67,0.61 -72.03,1.69 -14.25,3.54 -10.99,10.26 -11.47,19.7 -1.3,25.23 -2.34,77.72 1.55,105.13zm0 0c-3.89,-27.41 -2.84,-79.9 -1.55,-105.13 0.48,-9.44 -2.78,-16.16 11.47,-19.7 4.36,-1.08 48.76,1.17 72.03,-1.69l10.32 8.65c1.88,2.13 0.17,-1.05 3.85,5.2 0.31,0.52 0.91,1.42 1.17,1.96 3.3,6.84 1.08,7.74 0.85,11.08 -0.97,13.83 4.25,0.45 3.63,20.46 -0.37,11.65 -4.46,3.11 -4.8,36.55 -0.15,14.5 -2.63,28.36 -4.21,40.41 -19.36,4.11 -34.48,1 -53.43,2.35l-39.33 -0.12zm-22.89 26.31c25.64,-0.37 117.64,4.41 135.8,-2.51l-1.37 -159.39 -134.34 1.05 -0.09 160.85zm11.27 -315.43c0,-60.74 -8.5,-54.44 27.81,-63.68 8.82,20.04 -0.74,4.96 15.91,14.93 20.43,12.23 32.08,28.06 41.14,48.37 8.87,19.9 14.06,13.52 18.75,42.09l0.65 3.86c0.11,0.46 0.41,1.33 0.53,1.8 0.22,0.81 1.14,3 1.37,3.91 3.33,13.59 0.72,18.65 -6.3,32.12 -51.97,6.85 -63.78,2.81 -100.33,-11.07l0.47 -72.34zm122.63 36.19c-13.06,-37.37 -20.91,-54.56 -43.71,-77.43 -7.59,-7.61 -24.52,-20.06 -36.19,-26.17 -7.46,-3.91 -38.11,-14.19 -41.24,-17.13l-14.31 -0.26 -0.49 187.89 138.04 1.62 -2.1 -68.52zm-98.33 36.15l-3.61 0.01c-0.18,-5.93 -2.15,-75.15 2.39,-67.06 0.48,0.85 2.61,-1.41 4.68,-2.48l8.86 -4.45c0.76,-0.31 1.54,-0.71 2.35,-0.99l23.35 -2.28 -0.92 24.64 15.04 4.34c0.12,22.87 4.07,25.95 2.32,49.92l-47.69 -1.14c0.02,-15.45 1.49,-37.89 -5.47,-45.99l-1.31 45.48zm-24.3 -72.33l-0.47 72.34c36.55,13.88 48.35,17.92 100.33,11.07 7.02,-13.47 9.63,-18.53 6.3,-32.12 -0.22,-0.91 -1.15,-3.09 -1.37,-3.91 -0.12,-0.47 -0.42,-1.34 -0.53,-1.8l-0.65 -3.86c-4.69,-28.58 -9.88,-22.2 -18.75,-42.09 -9.06,-20.31 -20.72,-36.14 -41.14,-48.37 -16.65,-9.97 -7.09,5.11 -15.91,-14.93 -36.31,9.24 -27.81,2.94 -27.81,63.68zm-136.62 -50.36c-1.84,10.2 -2.6,3.16 0.91,7.86 3.99,5.34 -7.12,6.47 21.14,-1.51 8.85,-2.5 10.57,-3.29 24.36,0.37l7.86 2.55c0.18,0.76 0,1.23 0.02,2.33 0.24,21.45 6.61,12.61 9.38,22.32 0,22.2 -3.69,34.96 -4.06,52.54 -0.19,9.13 1.69,20.91 0.02,29.57l-10.28 16.91c-29.25,3.25 -65.97,7.88 -92.77,0.8 -4.48,-3.28 -2.25,-14.54 -2.03,-18.96 1.09,-21.47 -11.09,-12.13 0.02,-33.97 4.62,-9.1 0.82,-7.8 11.17,-12.35 -1.31,-7.9 1.55,-0.65 -1.66,-3.03l-4.1 -1.91c7.09,-14.6 16.98,-10.13 -0.04,-17.88 -5.67,5.7 -1.81,1.15 -6.66,10.24 -1.16,2.18 -2.2,4.61 -3.44,6.59 -5.87,9.42 2.06,0.62 -4.1,5.34 -0.09,24.93 -14.29,57.54 -6.69,86.04l137.87 1.27 0.57 -188.14c-18,-4.17 -74.5,22.35 -77.48,33.01zm75.2 211.2c-14.93,-7.2 -9.77,-1.3 -29.31,-0.43 -12.03,0.54 -11.46,-2.76 -22.85,0.71l4.87 1.63c0.86,0.29 3.97,1.27 4.94,1.63l18.68 11.51c3.91,-7.48 2.87,56.53 2.89,64.27 0.03,13.1 2.78,19.77 2.34,29.15 -0.31,6.57 -2.63,16.19 -2.76,27.35 -84.17,-1.47 -98.3,7.95 -103.26,-26.77 -6.67,-46.65 -2.16,-28.41 3.32,-69.49 3.73,-27.96 1.64,-39.83 59.66,-35.45 -5.02,-3.78 0.16,-1.18 -7.74,-3.32 -3.6,-0.97 -4.89,-0.91 -8.61,-1.29 -23.43,-2.42 -40.98,4.05 -46.69,-7.48 -11.9,2.82 -5.36,-2.32 -11.03,4.96l1.22 154.77 133.39 1.02 0.93 -152.79zm87.04 -133.99c6.96,8.09 5.48,30.54 5.47,45.99l47.69 1.14c1.74,-23.97 -2.2,-27.06 -2.32,-49.92l-15.04 -4.34 0.92 -24.64 -23.35 2.28c-0.81,0.28 -1.59,0.68 -2.35,0.99l-8.86 4.45c-2.07,1.07 -4.2,3.33 -4.68,2.48 -4.54,-8.09 -2.57,61.13 -2.39,67.06l3.61 -0.01 1.31 -45.48zm-36.89 288.58l0.09 -160.85 134.34 -1.05 1.37 159.39c-18.16,6.92 -110.16,2.14 -135.8,2.51zm0 0c12.46,9.41 131.67,3.61 138.81,1.32 2.8,-14.38 2.43,-153.06 -1.07,-164.8 -15.37,-6.81 -125.09,-6.79 -140.52,0.09 -3.59,21.91 -0.94,95.67 -1.38,127.46 -0.23,16.69 -4.56,31.79 4.17,35.93zm-174.67 -162.56c17.81,2.73 43.76,1.2 62.49,1.08l49.58 -0.48c16.57,1.52 8.96,-2.7 12.44,7.37l-0.93 152.79 -133.39 -1.02 -1.22 -154.77c5.67,-7.28 -0.87,-2.14 11.03,-4.96zm-15.09 -3.61c-0.05,30.42 -3.77,145.43 2.33,166.41 10.44,3.41 124.8,3.91 140.62,1.76l-0.44 -165.33c-17.33,-4.59 -118.14,-3.31 -142.51,-2.84z"/>
  </g>
 </g>
</svg>
